<svg preserveAspectRatio="none" width="100%" height="100%" overflow="visible" style="display: block;" viewBox="0 0 24 24" fill="none" xmlns="http://www.w3.org/2000/svg">
<g id="ArrowLeftOutlined">
<path id="Vector" d="M13.875 16.875L9.275 12.275C9.175 12.175 9.10417 12.0667 9.0625 11.95C9.02083 11.8333 9 11.7083 9 11.575C9 11.4417 9.02083 11.3167 9.0625 11.2C9.10417 11.0833 9.175 10.975 9.275 10.875L13.875 6.275C14.0583 6.09167 14.2917 6 14.575 6C14.8583 6 15.0917 6.09167 15.275 6.275C15.4583 6.45833 15.55 6.69167 15.55 6.975C15.55 7.25833 15.4583 7.49167 15.275 7.675L11.375 11.575L15.275 15.475C15.4583 15.6583 15.55 15.8917 15.55 16.175C15.55 16.4583 15.4583 16.6917 15.275 16.875C15.0917 17.0583 14.8583 17.15 14.575 17.15C14.2917 17.15 14.0583 17.0583 13.875 16.875Z" fill="var(--fill-0, #4D5966)"/>
</g>
</svg>
