<svg preserveAspectRatio="none" width="100%" height="100%" overflow="visible" style="display: block;" viewBox="0 0 24 24" fill="none" xmlns="http://www.w3.org/2000/svg">
<g id="ArrowRightOutlined">
<path id="Vector" d="M9.275 16.875C9.09167 16.6917 9 16.4583 9 16.175C9 15.8917 9.09167 15.6583 9.275 15.475L13.175 11.575L9.275 7.675C9.09167 7.49167 9 7.25833 9 6.975C9 6.69167 9.09167 6.45833 9.275 6.275C9.45833 6.09167 9.69167 6 9.975 6C10.2583 6 10.4917 6.09167 10.675 6.275L15.275 10.875C15.375 10.975 15.4458 11.0833 15.4875 11.2C15.5292 11.3167 15.55 11.4417 15.55 11.575C15.55 11.7083 15.5292 11.8333 15.4875 11.95C15.4458 12.0667 15.375 12.175 15.275 12.275L10.675 16.875C10.4917 17.0583 10.2583 17.15 9.975 17.15C9.69167 17.15 9.45833 17.0583 9.275 16.875Z" fill="var(--fill-0, #001022)"/>
</g>
</svg>
