<svg preserveAspectRatio="none" width="100%" height="100%" overflow="visible" style="display: block;" viewBox="0 0 24 24" fill="none" xmlns="http://www.w3.org/2000/svg">
<g id="AttributionOutlined">
<path id="Vector" d="M6 24C5.16667 24 4.45833 23.7083 3.875 23.125C3.29167 22.5417 3 21.8333 3 21C3 20.1667 3.29167 19.4583 3.875 18.875C4.45833 18.2917 5.16667 18 6 18C6.23333 18 6.45 18.025 6.65 18.075C6.85 18.125 7.04167 18.1917 7.225 18.275L8.65 16.5C8.18333 15.9833 7.85833 15.4 7.675 14.75C7.49167 14.1 7.45 13.45 7.55 12.8L5.525 12.125C5.24167 12.5417 4.88333 12.875 4.45 13.125C4.01667 13.375 3.53333 13.5 3 13.5C2.16667 13.5 1.45833 13.2083 0.875 12.625C0.291667 12.0417 0 11.3333 0 10.5C0 9.66667 0.291667 8.95833 0.875 8.375C1.45833 7.79167 2.16667 7.5 3 7.5C3.83333 7.5 4.54167 7.79167 5.125 8.375C5.70833 8.95833 6 9.66667 6 10.5V10.7L8.025 11.4C8.35833 10.8 8.80417 10.2917 9.3625 9.875C9.92083 9.45833 10.55 9.19167 11.25 9.075V6.9C10.6 6.71667 10.0625 6.3625 9.6375 5.8375C9.2125 5.3125 9 4.7 9 4C9 3.16667 9.29167 2.45833 9.875 1.875C10.4583 1.29167 11.1667 1 12 1C12.8333 1 13.5417 1.29167 14.125 1.875C14.7083 2.45833 15 3.16667 15 4C15 4.7 14.7833 5.3125 14.35 5.8375C13.9167 6.3625 13.3833 6.71667 12.75 6.9V9.075C13.45 9.19167 14.0792 9.45833 14.6375 9.875C15.1958 10.2917 15.6417 10.8 15.975 11.4L18 10.7V10.5C18 9.66667 18.2917 8.95833 18.875 8.375C19.4583 7.79167 20.1667 7.5 21 7.5C21.8333 7.5 22.5417 7.79167 23.125 8.375C23.7083 8.95833 24 9.66667 24 10.5C24 11.3333 23.7083 12.0417 23.125 12.625C22.5417 13.2083 21.8333 13.5 21 13.5C20.4667 13.5 19.9792 13.375 19.5375 13.125C19.0958 12.875 18.7417 12.5417 18.475 12.125L16.45 12.8C16.55 13.45 16.5083 14.0958 16.325 14.7375C16.1417 15.3792 15.8167 15.9667 15.35 16.5L16.775 18.25C16.9583 18.1667 17.15 18.1042 17.35 18.0625C17.55 18.0208 17.7667 18 18 18C18.8333 18 19.5417 18.2917 20.125 18.875C20.7083 19.4583 21 20.1667 21 21C21 21.8333 20.7083 22.5417 20.125 23.125C19.5417 23.7083 18.8333 24 18 24C17.1667 24 16.4583 23.7083 15.875 23.125C15.2917 22.5417 15 21.8333 15 21C15 20.6667 15.0542 20.3458 15.1625 20.0375C15.2708 19.7292 15.4167 19.45 15.6 19.2L14.175 17.425C13.4917 17.8083 12.7625 18 11.9875 18C11.2125 18 10.4833 17.8083 9.8 17.425L8.4 19.2C8.58333 19.45 8.72917 19.7292 8.8375 20.0375C8.94583 20.3458 9 20.6667 9 21C9 21.8333 8.70833 22.5417 8.125 23.125C7.54167 23.7083 6.83333 24 6 24ZM3 11.5C3.28333 11.5 3.52083 11.4042 3.7125 11.2125C3.90417 11.0208 4 10.7833 4 10.5C4 10.2167 3.90417 9.97917 3.7125 9.7875C3.52083 9.59583 3.28333 9.5 3 9.5C2.71667 9.5 2.47917 9.59583 2.2875 9.7875C2.09583 9.97917 2 10.2167 2 10.5C2 10.7833 2.09583 11.0208 2.2875 11.2125C2.47917 11.4042 2.71667 11.5 3 11.5ZM6 22C6.28333 22 6.52083 21.9042 6.7125 21.7125C6.90417 21.5208 7 21.2833 7 21C7 20.7167 6.90417 20.4792 6.7125 20.2875C6.52083 20.0958 6.28333 20 6 20C5.71667 20 5.47917 20.0958 5.2875 20.2875C5.09583 20.4792 5 20.7167 5 21C5 21.2833 5.09583 21.5208 5.2875 21.7125C5.47917 21.9042 5.71667 22 6 22ZM12 5C12.2833 5 12.5208 4.90417 12.7125 4.7125C12.9042 4.52083 13 4.28333 13 4C13 3.71667 12.9042 3.47917 12.7125 3.2875C12.5208 3.09583 12.2833 3 12 3C11.7167 3 11.4792 3.09583 11.2875 3.2875C11.0958 3.47917 11 3.71667 11 4C11 4.28333 11.0958 4.52083 11.2875 4.7125C11.4792 4.90417 11.7167 5 12 5ZM12 16C12.7 16 13.2917 15.7583 13.775 15.275C14.2583 14.7917 14.5 14.2 14.5 13.5C14.5 12.8 14.2583 12.2083 13.775 11.725C13.2917 11.2417 12.7 11 12 11C11.3 11 10.7083 11.2417 10.225 11.725C9.74167 12.2083 9.5 12.8 9.5 13.5C9.5 14.2 9.74167 14.7917 10.225 15.275C10.7083 15.7583 11.3 16 12 16ZM18 22C18.2833 22 18.5208 21.9042 18.7125 21.7125C18.9042 21.5208 19 21.2833 19 21C19 20.7167 18.9042 20.4792 18.7125 20.2875C18.5208 20.0958 18.2833 20 18 20C17.7167 20 17.4792 20.0958 17.2875 20.2875C17.0958 20.4792 17 20.7167 17 21C17 21.2833 17.0958 21.5208 17.2875 21.7125C17.4792 21.9042 17.7167 22 18 22ZM21 11.5C21.2833 11.5 21.5208 11.4042 21.7125 11.2125C21.9042 11.0208 22 10.7833 22 10.5C22 10.2167 21.9042 9.97917 21.7125 9.7875C21.5208 9.59583 21.2833 9.5 21 9.5C20.7167 9.5 20.4792 9.59583 20.2875 9.7875C20.0958 9.97917 20 10.2167 20 10.5C20 10.7833 20.0958 11.0208 20.2875 11.2125C20.4792 11.4042 20.7167 11.5 21 11.5Z" fill="var(--fill-0, #4D5966)"/>
</g>
</svg>
