<svg preserveAspectRatio="none" width="100%" height="100%" overflow="visible" style="display: block;" viewBox="0 0 24 24" fill="none" xmlns="http://www.w3.org/2000/svg">
<g id="CaratDownOutlined">
<path id="Vector" d="M11.588 15.563C11.4547 15.563 11.3297 15.5422 11.213 15.5005C11.0964 15.4589 10.988 15.388 10.888 15.288L6.26304 10.663C6.07971 10.4797 5.99221 10.2505 6.00054 9.97554C6.00888 9.70054 6.10471 9.47138 6.28804 9.28804C6.47138 9.10471 6.70471 9.01304 6.98804 9.01304C7.27138 9.01304 7.50471 9.10471 7.68804 9.28804L11.588 13.188L15.513 9.26304C15.6964 9.07971 15.9255 8.99221 16.2005 9.00054C16.4755 9.00888 16.7047 9.10471 16.888 9.28804C17.0714 9.47138 17.163 9.70471 17.163 9.98804C17.163 10.2714 17.0714 10.5047 16.888 10.688L12.288 15.288C12.188 15.388 12.0797 15.4589 11.963 15.5005C11.8464 15.5422 11.7214 15.563 11.588 15.563Z" fill="var(--fill-0, #4D5966)"/>
</g>
</svg>
