<svg preserveAspectRatio="none" width="100%" height="100%" overflow="visible" style="display: block;" viewBox="0 0 24 24" fill="none" xmlns="http://www.w3.org/2000/svg">
<g id="FunnelOutlined">
<path id="Vector" d="M11.0204 20C10.7371 20 10.4997 19.904 10.3084 19.712C10.1164 19.5207 10.0204 19.2833 10.0204 19V13L4.22039 5.6C3.97039 5.26667 3.93305 4.91667 4.10839 4.55C4.28305 4.18333 4.58705 4 5.02039 4H19.0204C19.4537 4 19.7581 4.18333 19.9334 4.55C20.1081 4.91667 20.0704 5.26667 19.8204 5.6L14.0204 13V19C14.0204 19.2833 13.9247 19.5207 13.7334 19.712C13.5414 19.904 13.3037 20 13.0204 20H11.0204ZM12.0204 12.3L16.9704 6H7.07039L12.0204 12.3Z" fill="var(--fill-0, #4D5966)"/>
</g>
</svg>
