<svg preserveAspectRatio="none" width="100%" height="100%" overflow="visible" style="display: block;" viewBox="0 0 24 24" fill="none" xmlns="http://www.w3.org/2000/svg">
<g id="HealthOutlined">
<path id="Vector" d="M12 21C11.7 21 11.4127 20.9457 11.138 20.837C10.8627 20.729 10.6167 20.5667 10.4 20.35L3.7 13.625C3.11667 13.0417 2.68767 12.375 2.413 11.625C2.13767 10.875 2 10.0917 2 9.275C2 7.55833 2.55833 6.08333 3.675 4.85C4.79167 3.61667 6.18333 3 7.85 3C8.65 3 9.40433 3.15833 10.113 3.475C10.821 3.79167 11.45 4.23333 12 4.8C12.5333 4.23333 13.1543 3.79167 13.863 3.475C14.571 3.15833 15.325 3 16.125 3C17.7917 3 19.1873 3.61667 20.312 4.85C21.4373 6.08333 22 7.55 22 9.25C22 10.0667 21.8583 10.85 21.575 11.6C21.2917 12.35 20.8667 13.0167 20.3 13.6L13.575 20.35C13.3583 20.5667 13.1167 20.729 12.85 20.837C12.5833 20.9457 12.3 21 12 21ZM13 8C13.1667 8 13.325 8.04167 13.475 8.125C13.625 8.20833 13.7417 8.31667 13.825 8.45L15.525 11H19.675C19.7917 10.7167 19.8793 10.429 19.938 10.137C19.996 9.84567 20.025 9.55 20.025 9.25C19.9917 8.1 19.6083 7.11233 18.875 6.287C18.1417 5.46233 17.225 5.05 16.125 5.05C15.6083 5.05 15.1127 5.15 14.638 5.35C14.1627 5.55 13.75 5.84167 13.4 6.225L12.725 6.95C12.6417 7.05 12.5333 7.129 12.4 7.187C12.2667 7.24567 12.1333 7.275 12 7.275C11.8667 7.275 11.7333 7.24567 11.6 7.187C11.4667 7.129 11.35 7.05 11.25 6.95L10.575 6.225C10.225 5.84167 9.81667 5.54167 9.35 5.325C8.88333 5.10833 8.38333 5 7.85 5C6.75 5 5.83333 5.42067 5.1 6.262C4.36667 7.104 4 8.1 4 9.25C4 9.55 4.025 9.84567 4.075 10.137C4.125 10.429 4.20833 10.7167 4.325 11H9C9.16667 11 9.325 11.0417 9.475 11.125C9.625 11.2083 9.74167 11.3167 9.825 11.45L10.7 12.75L12.05 8.7C12.1167 8.5 12.2377 8.33333 12.413 8.2C12.5877 8.06667 12.7833 8 13 8ZM13.3 11.25L11.95 15.3C11.8833 15.5 11.7583 15.6667 11.575 15.8C11.3917 15.9333 11.1917 16 10.975 16C10.8083 16 10.65 15.9583 10.5 15.875C10.35 15.7917 10.2333 15.6833 10.15 15.55L8.45 13H5.9L11.825 18.925C11.8583 18.9583 11.8877 18.9793 11.913 18.988C11.9377 18.996 11.9667 19 12 19C12.0333 19 12.0627 18.996 12.088 18.988C12.1127 18.9793 12.1417 18.9583 12.175 18.925L18.075 13H15C14.8333 13 14.675 12.9583 14.525 12.875C14.375 12.7917 14.25 12.6833 14.15 12.55L13.3 11.25Z" fill="var(--fill-0, #4D5966)"/>
</g>
</svg>
