<svg preserveAspectRatio="none" width="100%" height="100%" overflow="visible" style="display: block;" viewBox="0 0 24 24" fill="none" xmlns="http://www.w3.org/2000/svg">
<g id="InsightsOutlined">
<path id="Vector" d="M3 21C2.45 21 1.97933 20.8043 1.588 20.413C1.196 20.021 1 19.55 1 19C1 18.45 1.196 17.979 1.588 17.587C1.97933 17.1957 2.45 17 3 17H3.263C3.33767 17 3.41667 17.0167 3.5 17.05L8.05 12.5C8.01667 12.4167 8 12.3373 8 12.262V12C8 11.45 8.196 10.979 8.588 10.587C8.97933 10.1957 9.45 10 10 10C10.55 10 11.021 10.1957 11.413 10.587C11.8043 10.979 12 11.45 12 12C12 12.0333 11.9833 12.2 11.95 12.5L14.5 15.05C14.5833 15.0167 14.6627 15 14.738 15H15.262C15.3373 15 15.4167 15.0167 15.5 15.05L19.05 11.5C19.0167 11.4167 19 11.3373 19 11.262V11C19 10.45 19.1957 9.979 19.587 9.587C19.979 9.19567 20.45 9 21 9C21.55 9 22.021 9.19567 22.413 9.587C22.8043 9.979 23 10.45 23 11C23 11.55 22.8043 12.0207 22.413 12.412C22.021 12.804 21.55 13 21 13H20.738C20.6627 13 20.5833 12.9833 20.5 12.95L16.95 16.5C16.9833 16.5833 17 16.6627 17 16.738V17C17 17.55 16.8043 18.021 16.413 18.413C16.021 18.8043 15.55 19 15 19C14.45 19 13.9793 18.8043 13.588 18.413C13.196 18.021 13 17.55 13 17V16.738C13 16.6627 13.0167 16.5833 13.05 16.5L10.5 13.95C10.4167 13.9833 10.3373 14 10.262 14H10C9.96667 14 9.8 13.9833 9.5 13.95L4.95 18.5C4.98333 18.5833 5 18.6627 5 18.738V19C5 19.55 4.804 20.021 4.412 20.413C4.02067 20.8043 3.55 21 3 21ZM4 10.975L3.375 9.625L2.025 9L3.375 8.375L4 7.025L4.625 8.375L5.975 9L4.625 9.625L4 10.975ZM15 10L14.05 7.95L12 7L14.05 6.05L15 4L15.95 6.05L18 7L15.95 7.95L15 10Z" fill="var(--fill-0, #4D5966)"/>
</g>
</svg>
