<svg preserveAspectRatio="none" width="100%" height="100%" overflow="visible" style="display: block;" viewBox="0 0 24 24" fill="none" xmlns="http://www.w3.org/2000/svg">
<g id="KnowledgeBaseOutline">
<path id="Vector" d="M14 8.775C14 8.625 14.0543 8.47067 14.163 8.312C14.271 8.154 14.3917 8.05 14.525 8C15.0083 7.83333 15.4917 7.70833 15.975 7.625C16.4583 7.54167 16.9667 7.5 17.5 7.5C17.8333 7.5 18.1627 7.52067 18.488 7.562C18.8127 7.604 19.1333 7.65833 19.45 7.725C19.6 7.75833 19.729 7.84167 19.837 7.975C19.9457 8.10833 20 8.25833 20 8.425C20 8.70833 19.9083 8.91667 19.725 9.05C19.5417 9.18333 19.3083 9.21667 19.025 9.15C18.7917 9.1 18.546 9.06233 18.288 9.037C18.0293 9.01233 17.7667 9 17.5 9C17.0667 9 16.6417 9.04167 16.225 9.125C15.8083 9.20833 15.4083 9.31667 15.025 9.45C14.725 9.56667 14.4793 9.55833 14.288 9.425C14.096 9.29167 14 9.075 14 8.775ZM14 14.275C14 14.125 14.0543 13.9707 14.163 13.812C14.271 13.654 14.3917 13.55 14.525 13.5C15.0083 13.3333 15.4917 13.2083 15.975 13.125C16.4583 13.0417 16.9667 13 17.5 13C17.8333 13 18.1627 13.0207 18.488 13.062C18.8127 13.104 19.1333 13.1583 19.45 13.225C19.6 13.2583 19.729 13.3417 19.837 13.475C19.9457 13.6083 20 13.7583 20 13.925C20 14.2083 19.9083 14.4167 19.725 14.55C19.5417 14.6833 19.3083 14.7167 19.025 14.65C18.7917 14.6 18.546 14.5623 18.288 14.537C18.0293 14.5123 17.7667 14.5 17.5 14.5C17.0667 14.5 16.6417 14.5377 16.225 14.613C15.8083 14.6877 15.4083 14.7917 15.025 14.925C14.725 15.0417 14.4793 15.0373 14.288 14.912C14.096 14.7873 14 14.575 14 14.275ZM14 11.525C14 11.375 14.0543 11.2207 14.163 11.062C14.271 10.904 14.3917 10.8 14.525 10.75C15.0083 10.5833 15.4917 10.4583 15.975 10.375C16.4583 10.2917 16.9667 10.25 17.5 10.25C17.8333 10.25 18.1627 10.2707 18.488 10.312C18.8127 10.354 19.1333 10.4083 19.45 10.475C19.6 10.5083 19.729 10.5917 19.837 10.725C19.9457 10.8583 20 11.0083 20 11.175C20 11.4583 19.9083 11.6667 19.725 11.8C19.5417 11.9333 19.3083 11.9667 19.025 11.9C18.7917 11.85 18.546 11.8123 18.288 11.787C18.0293 11.7623 17.7667 11.75 17.5 11.75C17.0667 11.75 16.6417 11.7917 16.225 11.875C15.8083 11.9583 15.4083 12.0667 15.025 12.2C14.725 12.3167 14.4793 12.3083 14.288 12.175C14.096 12.0417 14 11.825 14 11.525ZM6.5 16C7.28333 16 8.046 16.0873 8.788 16.262C9.52933 16.4373 10.2667 16.7 11 17.05V7.2C10.3167 6.8 9.59167 6.5 8.825 6.3C8.05833 6.1 7.28333 6 6.5 6C5.9 6 5.30433 6.05833 4.713 6.175C4.121 6.29167 3.55 6.46667 3 6.7V16.6C3.58333 16.4 4.16267 16.25 4.738 16.15C5.31267 16.05 5.9 16 6.5 16ZM13 17.05C13.7333 16.7 14.471 16.4373 15.213 16.262C15.9543 16.0873 16.7167 16 17.5 16C18.1 16 18.6877 16.05 19.263 16.15C19.8377 16.25 20.4167 16.4 21 16.6V6.7C20.45 6.46667 19.8793 6.29167 19.288 6.175C18.696 6.05833 18.1 6 17.5 6C16.7167 6 15.9417 6.1 15.175 6.3C14.4083 6.5 13.6833 6.8 13 7.2V17.05ZM12 19.475C11.7667 19.475 11.546 19.446 11.338 19.388C11.1293 19.3293 10.9333 19.25 10.75 19.15C10.1 18.7667 9.41667 18.4793 8.7 18.288C7.98333 18.096 7.25 18 6.5 18C5.8 18 5.11267 18.0917 4.438 18.275C3.76267 18.4583 3.11667 18.7167 2.5 19.05C2.15 19.2333 1.81267 19.225 1.488 19.025C1.16267 18.825 1 18.5333 1 18.15V6.1C1 5.91667 1.046 5.74167 1.138 5.575C1.22933 5.40833 1.36667 5.28333 1.55 5.2C2.31667 4.8 3.11667 4.5 3.95 4.3C4.78333 4.1 5.63333 4 6.5 4C7.46667 4 8.41267 4.125 9.338 4.375C10.2627 4.625 11.15 5 12 5.5C12.85 5 13.7377 4.625 14.663 4.375C15.5877 4.125 16.5333 4 17.5 4C18.3667 4 19.2167 4.1 20.05 4.3C20.8833 4.5 21.6833 4.8 22.45 5.2C22.6333 5.28333 22.771 5.40833 22.863 5.575C22.9543 5.74167 23 5.91667 23 6.1V18.15C23 18.5333 22.8377 18.825 22.513 19.025C22.1877 19.225 21.85 19.2333 21.5 19.05C20.8833 18.7167 20.2373 18.4583 19.562 18.275C18.8873 18.0917 18.2 18 17.5 18C16.75 18 16.0167 18.096 15.3 18.288C14.5833 18.4793 13.9 18.7667 13.25 19.15C13.0667 19.25 12.871 19.3293 12.663 19.388C12.4543 19.446 12.2333 19.475 12 19.475Z" fill="var(--fill-0, #4D5966)"/>
</g>
</svg>
