<svg preserveAspectRatio="none" width="100%" height="100%" overflow="visible" style="display: block;" viewBox="0 0 24 24" fill="none" xmlns="http://www.w3.org/2000/svg">
<g id="ReleasesOutlined">
<path id="Vector" d="M6.375 19.5194L3.625 18.9194C3.375 18.8694 3.175 18.7401 3.025 18.5314C2.875 18.3234 2.81667 18.0944 2.85 17.8444L3.125 15.0194L1.25 12.8694C1.08333 12.6861 1 12.4694 1 12.2194C1 11.9694 1.08333 11.7528 1.25 11.5694L3.125 9.41944L2.85 6.59444C2.81667 6.34444 2.875 6.11544 3.025 5.90744C3.175 5.69878 3.375 5.56944 3.625 5.51944L6.375 4.91944L7.825 2.46944C7.95833 2.25278 8.14167 2.11111 8.375 2.04444C8.60833 1.97778 8.84167 1.98611 9.075 2.06944L11.675 3.16944L14.275 2.06944C14.5083 1.98611 14.7417 1.97778 14.975 2.04444C15.2083 2.11111 15.3917 2.25278 15.525 2.46944L16.975 4.91944L19.725 5.51944C19.975 5.56944 20.175 5.69878 20.325 5.90744C20.475 6.11544 20.5333 6.34444 20.5 6.59444L20.225 9.41944L22.1 11.5694C22.2667 11.7528 22.35 11.9694 22.35 12.2194C22.35 12.4694 22.2667 12.6861 22.1 12.8694L20.225 15.0194L20.5 17.8444C20.5333 18.0944 20.475 18.3234 20.325 18.5314C20.175 18.7401 19.975 18.8694 19.725 18.9194L16.975 19.5194L15.525 21.9694C15.3917 22.1861 15.2083 22.3278 14.975 22.3944C14.7417 22.4611 14.5083 22.4528 14.275 22.3694L11.675 21.2694L9.075 22.3694C8.84167 22.4528 8.60833 22.4611 8.375 22.3944C8.14167 22.3278 7.95833 22.1861 7.825 21.9694L6.375 19.5194ZM9.925 15.0694C10.1083 15.2528 10.3417 15.3444 10.625 15.3444C10.9083 15.3444 11.1417 15.2528 11.325 15.0694L15.575 10.8194C15.775 10.6194 15.875 10.3818 15.875 10.1064C15.875 9.83178 15.775 9.59444 15.575 9.39444C15.375 9.19444 15.1377 9.09444 14.863 9.09444C14.5877 9.09444 14.35 9.19444 14.15 9.39444L10.625 12.9194L9.175 11.4944C8.975 11.3111 8.73767 11.2234 8.463 11.2314C8.18767 11.2401 7.95833 11.3361 7.775 11.5194C7.59167 11.7028 7.5 11.9361 7.5 12.2194C7.5 12.5028 7.59167 12.7361 7.775 12.9194L9.925 15.0694ZM9.125 20.1694L11.675 19.0694L14.275 20.1694L15.675 17.7694L18.425 17.1194L18.175 14.3194L20.025 12.2194L18.175 10.0694L18.425 7.26944L15.675 6.66944L14.225 4.26944L11.675 5.36944L9.075 4.26944L7.675 6.66944L4.925 7.26944L5.175 10.0694L3.325 12.2194L5.175 14.3194L4.925 17.1694L7.675 17.7694L9.125 20.1694Z" fill="var(--fill-0, #4D5966)"/>
</g>
</svg>
