<svg preserveAspectRatio="none" width="100%" height="100%" overflow="visible" style="display: block;" viewBox="0 0 14 14" fill="none" xmlns="http://www.w3.org/2000/svg">
<g id="CheckCircleOutlined">
<path id="Vector" d="M9.6775 4.42167L5.83333 8.26583L3.73917 6.1775L2.91667 7L5.83333 9.91667L10.5 5.25L9.6775 4.42167ZM7 1.16667C3.78 1.16667 1.16667 3.78 1.16667 7C1.16667 10.22 3.78 12.8333 7 12.8333C10.22 12.8333 12.8333 10.22 12.8333 7C12.8333 3.78 10.22 1.16667 7 1.16667ZM7 11.6667C4.42167 11.6667 2.33333 9.57833 2.33333 7C2.33333 4.42167 4.42167 2.33333 7 2.33333C9.57833 2.33333 11.6667 4.42167 11.6667 7C11.6667 9.57833 9.57833 11.6667 7 11.6667Z" fill="var(--fill-0, white)"/>
</g>
</svg>
