<svg preserveAspectRatio="none" width="100%" height="100%" overflow="visible" style="display: block;" viewBox="0 0 24 24" fill="none" xmlns="http://www.w3.org/2000/svg">
<g id="Artboard 1">
<path id="Vector" d="M21.0884 6.90002C20.6684 6.27002 19.9084 5.55002 19.0684 4.96002L18.9784 4.90002L18.6684 5.27002L18.7584 5.35002C19.4184 5.89002 19.9884 6.55002 20.4184 7.28002C22.7184 11.15 21.4784 16.49 17.3984 19.51C15.0684 21.24 8.93836 22.92 6.03836 18.67C5.00836 17.16 4.63836 15.19 4.84836 13.21C5.05836 13.4 5.25836 13.58 5.48836 13.77C6.05836 14.23 6.97836 14.83 7.94836 15.37L8.14836 15.48L8.38837 15.06L8.17837 14.93C7.43837 14.48 6.70836 13.94 6.07836 13.39C5.67836 13.04 5.31836 12.68 4.98836 12.32C5.42836 9.99002 6.64836 7.73002 8.52836 6.27002C10.0784 6.72002 11.7984 7.56002 13.4184 8.88002C15.1584 10.29 16.2984 11.9 16.5384 13.29C16.7184 14.3 16.4084 15.13 15.6584 15.62C15.0284 16.04 14.2084 16.21 13.2284 16.14C13.2084 16.11 13.1884 16.08 13.1584 16.06C12.3384 15.11 10.9784 14.67 10.1184 15.08C9.25837 15.49 9.21837 16.6 10.0384 17.55C10.8584 18.5 12.2184 18.94 13.0784 18.53C13.3684 18.39 13.5684 18.17 13.6684 17.91C15.0584 18.07 16.4884 17.95 17.5284 17.3C18.5784 16.64 19.0084 15.56 18.7884 14.19C18.4784 12.3 16.9384 10.09 14.5384 8.11002C13.1084 6.93002 11.4784 6.00002 9.87837 5.36002C10.9884 4.71002 12.1384 4.30002 13.2684 4.22002C13.3084 4.31002 13.5284 4.89002 13.5784 4.97002C13.8784 5.46002 14.3484 5.80002 14.8984 5.92002C15.0484 5.95002 15.1984 5.97002 15.3384 5.97002C16.3984 5.97002 17.4184 5.17002 17.7184 4.02002C17.8984 3.35002 17.8084 2.65002 17.4684 2.10002C17.1684 1.61002 16.6984 1.27002 16.1484 1.15002C15.1584 0.930023 14.1184 1.47002 13.5884 2.40002C11.6384 2.56002 9.60836 3.36002 7.84836 4.71002C5.73836 4.21002 3.80836 4.29002 2.59836 5.10002C1.61836 5.76002 1.20837 6.85002 1.45837 8.19002C1.65837 9.29002 2.28837 10.48 3.28837 11.66C3.29837 11.68 3.31836 11.69 3.32836 11.71C2.63836 14.46 2.91836 17.31 4.36836 19.47C5.55836 21.24 7.49837 22.43 9.82837 22.81C10.3784 22.9 10.9284 22.94 11.4784 22.94C13.8784 22.94 16.2884 22.11 18.2784 20.58C20.2784 19.04 21.7584 16.74 22.3384 14.29C22.9584 11.66 22.5184 9.05002 21.0884 6.92002V6.90002ZM2.97837 8.68002C2.84837 7.64002 3.23836 6.82002 4.09836 6.30002C4.67836 5.95002 5.53836 5.82002 6.53836 5.89002C5.23836 7.24002 4.26837 8.85002 3.66837 10.55C3.29836 9.90002 3.04837 9.26002 2.97837 8.68002Z" fill="var(--fill-0, #707070)"/>
</g>
</svg>
