<svg preserveAspectRatio="none" width="100%" height="100%" overflow="visible" style="display: block;" viewBox="0 0 24 24" fill="none" xmlns="http://www.w3.org/2000/svg">
<g id="Artboard 2">
<path id="Union" d="M10.5371 3.04004C12.3671 1.46004 15.3178 1.1002 16.7578 1.7002C18.1977 2.31032 19.3676 4.0902 19.5176 6.5C19.6576 8.82987 19.1176 11.6198 17.9678 14.3496L17.9473 14.3398C15.5173 20.1298 10.5972 23.5503 7.65723 22.3203C6.22726 21.7203 4.60703 19.9099 4.45703 17.5C4.43704 17.26 4.4375 17.0097 4.4375 16.7598C4.43755 14.5899 4.98769 12.0902 6.01758 9.65039C7.16753 6.9205 8.7672 4.57004 10.5371 3.04004ZM16.2979 2.2998C15.2179 1.76982 13.7978 2.24023 12.2979 3.62012C10.7479 5.05012 9.31758 7.26035 8.26758 9.86035C7.21767 12.4602 6.67785 15.11 6.75781 17.3398C6.82781 19.4896 7.45731 20.9699 8.53711 21.5C10.8271 22.62 14.4274 19.2302 16.5674 13.9404C17.5074 11.6105 18.0371 9.23013 18.0771 7.16016V6.45996C18.0071 4.31014 17.3777 2.82988 16.2979 2.2998ZM2.85938 19.1104C3.41166 19.1104 3.85938 19.5581 3.85938 20.1104C3.85938 20.6626 3.41166 21.1104 2.85938 21.1104C2.30709 21.1104 1.85938 20.6626 1.85938 20.1104C1.85938 19.5581 2.30709 19.1104 2.85938 19.1104ZM8.85938 16.2402C9.41166 16.2402 9.85938 16.6879 9.85938 17.2402C9.85938 17.7925 9.41166 18.2402 8.85938 18.2402C8.30709 18.2402 7.85938 17.7925 7.85938 17.2402C7.85938 16.6879 8.30709 16.2402 8.85938 16.2402ZM12.1992 15.8896C12.7515 15.8896 13.1992 16.3374 13.1992 16.8896C13.1992 17.4419 12.7515 17.8896 12.1992 17.8896C11.6469 17.8896 11.1992 17.4419 11.1992 16.8896C11.1992 16.3374 11.6469 15.8896 12.1992 15.8896ZM19.4688 15.7803C20.021 15.7803 20.4687 16.228 20.4688 16.7803C20.4688 17.3326 20.021 17.7803 19.4688 17.7803C18.9165 17.7803 18.4688 17.3326 18.4688 16.7803C18.4688 16.228 18.9165 15.7803 19.4688 15.7803ZM13.1289 12.8203C13.6812 12.8203 14.1289 13.268 14.1289 13.8203C14.1289 14.3726 13.6812 14.8203 13.1289 14.8203C12.5766 14.8203 12.1289 14.3726 12.1289 13.8203C12.1289 13.268 12.5766 12.8203 13.1289 12.8203ZM10.168 10.5498C10.7203 10.5498 11.168 10.9975 11.168 11.5498C11.168 12.1021 10.7203 12.5498 10.168 12.5498C9.61568 12.5498 9.16797 12.1021 9.16797 11.5498C9.16797 10.9975 9.61568 10.5498 10.168 10.5498ZM15.3594 8.82031C15.9117 8.82031 16.3594 9.26803 16.3594 9.82031C16.3594 10.3726 15.9117 10.8203 15.3594 10.8203C14.8071 10.8203 14.3594 10.3726 14.3594 9.82031C14.3594 9.26803 14.8071 8.82031 15.3594 8.82031ZM4.00781 7.38965C4.5601 7.38965 5.00781 7.83736 5.00781 8.38965C5.00781 8.94193 4.5601 9.38965 4.00781 9.38965C3.45553 9.38965 3.00781 8.94193 3.00781 8.38965C3.00781 7.83736 3.45553 7.38965 4.00781 7.38965ZM12.2383 6.62012C12.7906 6.62012 13.2383 7.06783 13.2383 7.62012C13.2383 8.1724 12.7906 8.62012 12.2383 8.62012C11.686 8.62012 11.2383 8.1724 11.2383 7.62012C11.2383 7.06783 11.686 6.62012 12.2383 6.62012ZM6.71094 3.71973C7.26322 3.71973 7.71094 4.16744 7.71094 4.71973C7.71094 5.27201 7.26322 5.71973 6.71094 5.71973C6.15865 5.71973 5.71094 5.27201 5.71094 4.71973C5.71094 4.16744 6.15865 3.71973 6.71094 3.71973ZM15.168 3.5498C15.7203 3.5498 16.168 3.99752 16.168 4.5498C16.168 5.10209 15.7203 5.5498 15.168 5.5498C14.6157 5.5498 14.168 5.10209 14.168 4.5498C14.168 3.99752 14.6157 3.5498 15.168 3.5498ZM6.19922 0.790039C6.75142 0.790138 7.19922 1.23782 7.19922 1.79004C7.19922 2.34226 6.75142 2.78994 6.19922 2.79004C5.64693 2.79004 5.19922 2.34232 5.19922 1.79004C5.19922 1.23775 5.64693 0.790039 6.19922 0.790039Z" fill="var(--fill-0, #707070)"/>
</g>
</svg>
