<svg preserveAspectRatio="none" width="100%" height="100%" overflow="visible" style="display: block;" viewBox="0 0 32 32" fill="none" xmlns="http://www.w3.org/2000/svg">
<g id="Generic avatar">
<rect width="32" height="32" rx="16" fill="var(--fill-0, #F5F8FC)"/>
<g id="Avatar Placeholder">
<path fill-rule="evenodd" clip-rule="evenodd" d="M20.8002 12.8C20.8002 15.451 18.6512 17.6 16.0002 17.6C13.3492 17.6 11.2002 15.451 11.2002 12.8C11.2002 10.149 13.3492 8 16.0002 8C18.6512 8 20.8002 10.149 20.8002 12.8ZM19.2002 12.8C19.2002 14.5673 17.7675 16 16.0002 16C14.2329 16 12.8002 14.5673 12.8002 12.8C12.8002 11.0327 14.2329 9.6 16.0002 9.6C17.7675 9.6 19.2002 11.0327 19.2002 12.8Z" fill="var(--fill-0, #003D78)"/>
<path d="M16.0002 20C10.8207 20 6.40761 23.0627 4.72656 27.3536C5.13608 27.7603 5.56747 28.1449 6.01883 28.5056C7.27062 24.5662 11.1976 21.6 16.0002 21.6C20.8028 21.6 24.7298 24.5662 25.9816 28.5057C26.4329 28.1449 26.8643 27.7603 27.2738 27.3536C25.5928 23.0627 21.1797 20 16.0002 20Z" fill="var(--fill-0, #003D78)"/>
</g>
</g>
</svg>
