<svg preserveAspectRatio="none" width="100%" height="100%" overflow="visible" style="display: block;" viewBox="0 0 24 24" fill="none" xmlns="http://www.w3.org/2000/svg">
<g id="Artboard 4">
<path id="Vector" d="M21.4308 5.27017C18.7208 1.96017 10.7308 1.25017 4.73079 6.37017C1.73079 8.93017 0.180789 12.5602 1.19079 15.9402C1.42079 16.7602 1.80079 17.5602 2.36079 18.3202C2.45079 18.4602 2.56079 18.5902 2.66079 18.7202C5.74079 22.5502 12.1108 21.6502 15.7908 19.4002C15.6708 19.0302 15.5608 18.6602 15.4208 18.3102C15.3608 18.3602 15.3008 18.4002 15.2308 18.4402C12.1208 20.3802 6.92079 20.8102 4.43079 17.7302C3.96079 17.1402 3.61079 16.5302 3.38079 15.9002C3.00079 14.8802 2.92079 13.8302 3.09079 12.8002C3.38079 10.9502 4.49079 9.16017 6.12079 7.77017C10.9408 3.64017 17.4608 4.15017 19.5508 6.89017C20.8508 8.58017 21.0508 10.8202 20.1408 13.0502C19.9608 13.0202 19.7608 12.9902 19.5508 12.9902C19.2108 12.9902 18.8908 13.0502 18.5908 13.1402C17.9408 13.3502 17.4008 13.7602 17.0208 14.3002C16.7008 14.7502 16.5008 15.2902 16.4608 15.8702C16.4508 15.9402 16.4508 16.0102 16.4508 16.0802C16.4508 16.5402 16.5508 16.9702 16.7308 17.3602C16.7408 17.3702 16.7408 17.3802 16.7508 17.3902C16.7808 17.4702 16.8208 17.5402 16.8708 17.6202C16.9608 17.7802 17.0708 17.9302 17.2108 18.0802C17.2708 18.1502 17.3408 18.2202 17.4108 18.2902C17.4608 18.3502 17.5008 18.3902 17.5608 18.4302C18.0908 18.8902 18.8008 19.1702 19.5608 19.1702C20.2408 19.1702 20.8708 18.9502 21.3908 18.5702C21.9208 18.1802 22.3308 17.6102 22.5208 16.9602C22.6008 16.6702 22.6508 16.3802 22.6508 16.0702C22.6508 15.4302 22.4608 14.8602 22.1308 14.3602C23.7608 11.3602 23.3408 7.53017 21.4608 5.24017L21.4308 5.27017Z" fill="var(--fill-0, #707070)"/>
<path id="Vector_2" d="M10.409 8.19996L7.07898 12.18C7.03898 12.23 7.05898 12.32 7.12898 12.33L14.549 14.07C14.629 14.09 14.699 13.99 14.649 13.92L10.549 8.19996C10.549 8.19996 10.439 8.14996 10.399 8.19996H10.409Z" fill="var(--fill-0, #707070)"/>
</g>
</svg>
