<svg preserveAspectRatio="none" width="100%" height="100%" overflow="visible" style="display: block;" viewBox="0 0 24 24" fill="none" xmlns="http://www.w3.org/2000/svg">
<g id="Artboard 3">
<path id="Union" d="M16.6621 19.3711C16.732 19.7408 16.772 20.1404 16.792 20.54C16.802 20.72 16.8115 20.8903 16.8115 21.0703C16.2516 21.1703 15.6512 21.2197 15.0312 21.2197C14.6814 21.2197 14.3716 21.1901 14.0117 21.1602C14.1317 20.5702 14.1318 20.1899 14.1318 19.6299C15.058 19.6199 15.8947 19.5005 16.6621 19.3711ZM9.64062 18.7197C9.6703 18.728 11.9732 19.3699 12.4004 19.4395C12.3604 19.9394 12.35 20.2697 12.25 20.8896C11.8695 20.7294 10.2601 20.0396 9.32031 19.2598L9.64062 18.7197ZM19.9805 17.7803C20.4405 18.0803 20.9008 18.4303 21.3408 18.8203C21.1908 18.9903 21.0306 19.14 20.8506 19.29C20.4006 19.69 19.881 20.0306 19.291 20.3105C19.0411 20.4305 18.7711 20.5504 18.4912 20.6504C18.4712 20.0405 18.4107 19.4505 18.3008 18.8906C18.9807 18.6107 19.5505 18.2302 19.9805 17.7803ZM8.5 2.89941C8.14001 3.22941 7.83007 3.61028 7.58008 4.03027C7.47019 4.22013 7.3702 4.42028 7.28027 4.62012C5.29036 4.82014 3.71998 5.60961 3 6.80957C2.05001 8.39956 2.52042 11.1598 4.40039 13.7598C4.66039 13.6798 4.94047 13.6299 5.23047 13.6299C6.70043 13.6299 7.90038 14.8198 7.90039 16.2998C7.90039 16.5698 7.86004 16.8203 7.79004 17.0703C7.61998 17.6301 7.27038 18.1201 6.81055 18.46C6.36056 18.7899 5.82044 18.9795 5.23047 18.9795C3.75047 18.9795 2.55078 17.7798 2.55078 16.2998C2.55079 15.7299 2.7301 15.1997 3.04004 14.7598C2.95015 14.6499 2.8807 14.5396 2.80078 14.4297C0.810781 11.4797 0.190039 8.19945 1.54004 5.93945C2.78001 3.85962 5.44023 2.82952 8.5 2.89941ZM14.4414 1.78027C15.3912 1.78029 16.291 1.96042 17.1309 2.32031C17.9109 2.66031 18.6014 3.11066 19.1914 3.68066C19.2313 3.7205 19.2814 3.75997 19.3213 3.7998C19.9412 4.41975 20.4308 5.15032 20.8008 5.99023C21.1608 6.83023 21.3408 7.73066 21.3408 8.68066C21.3408 9.17048 21.2911 9.65029 21.2012 10.1201C22.7811 12.6999 23.1313 15.3999 22.2715 17.3799C21.8115 16.9899 21.3413 16.6403 20.8613 16.3203C20.9913 15.9203 21.0508 15.4903 21.0508 15.0303C21.0508 14.1503 20.8209 13.1804 20.3809 12.1904C20.0809 12.7003 19.7312 13.1604 19.3213 13.5703C18.7013 14.1903 17.9709 14.68 17.1309 15.04C16.301 15.3999 15.4213 15.5798 14.4814 15.5898H14.4414C13.4814 15.5898 12.5812 15.41 11.7412 15.04C11.0213 14.7301 10.3812 14.3303 9.82129 13.8203C9.81129 13.8103 9.80078 13.8 9.80078 13.79C9.71096 13.7301 9.63065 13.6502 9.55078 13.5703C8.93088 12.9504 8.44101 12.2198 8.08105 11.3799C8.02111 11.24 7.96086 11.0998 7.9209 10.96C7.66103 10.2402 7.53129 9.48038 7.53125 8.68066C7.53125 7.73068 7.71107 6.83022 8.08105 5.99023C8.30105 5.48023 8.56086 5.01984 8.88086 4.58984C9.08084 4.30988 9.30081 4.04977 9.55078 3.7998C9.82074 3.52985 10.111 3.29005 10.4209 3.08008C10.8209 2.78009 11.2612 2.53031 11.7412 2.32031C12.5812 1.96031 13.4914 1.78027 14.4414 1.78027ZM8.96094 8.06055C8.93096 8.27044 8.91113 8.48076 8.91113 8.68066C8.91113 8.78051 8.91091 8.87083 8.9209 8.9707C8.98097 10.2504 9.43131 11.37 10.291 12.3398C10.781 12.9098 11.3514 13.3504 11.9814 13.6504C12.5213 13.9203 13.1112 14.0899 13.751 14.1699V12.8301C13.3711 12.83 13.0414 12.6899 12.7715 12.4199C12.5015 12.1499 12.3613 11.8302 12.3613 11.4502V10.75L9.05078 7.44043C9.02078 7.65036 8.98093 7.86062 8.96094 8.06055ZM16.5117 3.85059C16.5116 4.23034 16.3713 4.5602 16.1016 4.83008C16.0216 4.91001 15.9415 4.98028 15.8516 5.03027C15.6416 5.17027 15.4009 5.23047 15.1309 5.23047H13.751V6.61035C13.751 6.81032 13.6808 6.9706 13.5508 7.10059C13.4109 7.24024 13.2512 7.29975 13.0615 7.2998H11.6709V8.68066H15.8213C16.0112 8.68067 16.1815 8.74993 16.3115 8.87988C16.4415 9.00985 16.5117 9.18018 16.5117 9.37012V11.4502H17.2012C17.5012 11.4502 17.7717 11.53 18.0117 11.71C18.2516 11.8899 18.4217 12.1202 18.5117 12.4102C18.9716 11.9002 19.3313 11.3398 19.5713 10.71C19.5895 10.7008 19.5907 10.6835 19.5908 10.6807H19.5811C19.831 10.0408 19.9511 9.37053 19.9512 8.68066V8.41016C19.9112 7.4002 19.6015 6.44981 19.0215 5.58984C18.3916 4.66004 17.5515 3.99006 16.5117 3.58008V3.85059Z" fill="var(--fill-0, #707070)"/>
</g>
</svg>
