<svg preserveAspectRatio="none" width="100%" height="100%" overflow="visible" style="display: block;" viewBox="0 0 24 24" fill="none" xmlns="http://www.w3.org/2000/svg">
<g id="satellite_alt">
<mask id="mask0_0_132" style="mask-type:alpha" maskUnits="userSpaceOnUse" x="0" y="0" width="24" height="24">
<rect id="Bounding box" width="24" height="24" fill="var(--fill-0, #D9D9D9)"/>
</mask>
<g mask="url(#mask0_0_132)">
<path id="satellite_alt_2" d="M14 23.2V21.2C15.95 21.2 17.6042 20.5208 18.9625 19.1625C20.3208 17.8042 21 16.15 21 14.2H23C23 15.45 22.7625 16.6208 22.2875 17.7125C21.8125 18.8042 21.1708 19.7542 20.3625 20.5625C19.5542 21.3708 18.6042 22.0125 17.5125 22.4875C16.4208 22.9625 15.25 23.2 14 23.2ZM14 19.2V17.2C14.8333 17.2 15.5417 16.9083 16.125 16.325C16.7083 15.7417 17 15.0333 17 14.2H19C19 15.5833 18.5125 16.7625 17.5375 17.7375C16.5625 18.7125 15.3833 19.2 14 19.2ZM5.55 22.575C5.3 22.575 5.05 22.525 4.8 22.425C4.55 22.325 4.325 22.1833 4.125 22L0.575 18.45C0.391666 18.25 0.25 18.025 0.15 17.775C0.0499998 17.525 -1.78814e-07 17.275 -1.78814e-07 17.025C-1.78814e-07 16.7583 0.0499998 16.5042 0.15 16.2625C0.25 16.0208 0.391666 15.8083 0.575 15.625L3.75 12.45C4.13333 12.0667 4.60833 11.8708 5.175 11.8625C5.74167 11.8542 6.21667 12.0417 6.6 12.425L7.85 13.675L8.55 12.975L7.3 11.725C6.91667 11.3417 6.725 10.875 6.725 10.325C6.725 9.775 6.91667 9.30833 7.3 8.925L8.725 7.5C9.10833 7.11667 9.57917 6.925 10.1375 6.925C10.6958 6.925 11.1667 7.11667 11.55 7.5L12.8 8.75L13.5 8.05L12.25 6.8C11.8667 6.41667 11.675 5.94583 11.675 5.3875C11.675 4.82917 11.8667 4.35833 12.25 3.975L15.425 0.8C15.625 0.6 15.85 0.45 16.1 0.35C16.35 0.25 16.6 0.2 16.85 0.2C17.1 0.2 17.3458 0.25 17.5875 0.35C17.8292 0.45 18.05 0.6 18.25 0.8L21.8 4.35C22 4.53333 22.1458 4.74583 22.2375 4.9875C22.3292 5.22917 22.375 5.48333 22.375 5.75C22.375 6 22.3292 6.25 22.2375 6.5C22.1458 6.75 22 6.975 21.8 7.175L18.625 10.35C18.2417 10.7333 17.7708 10.925 17.2125 10.925C16.6542 10.925 16.1833 10.7333 15.8 10.35L14.55 9.1L13.85 9.8L15.1 11.05C15.4833 11.4333 15.6708 11.9042 15.6625 12.4625C15.6542 13.0208 15.4583 13.4917 15.075 13.875L13.675 15.275C13.2917 15.6583 12.8208 15.85 12.2625 15.85C11.7042 15.85 11.2333 15.6583 10.85 15.275L9.6 14.025L8.9 14.725L10.15 15.975C10.5333 16.3583 10.7208 16.8333 10.7125 17.4C10.7042 17.9667 10.5083 18.4417 10.125 18.825L6.95 22C6.76667 22.1833 6.55417 22.325 6.3125 22.425C6.07083 22.525 5.81667 22.575 5.55 22.575ZM5.55 20.6L6.6 19.55L3.05 16L2 17.05L5.55 20.6ZM7.675 18.475L8.725 17.425L5.175 13.875L4.125 14.925L7.675 18.475ZM12.275 13.875L13.675 12.475L10.125 8.925L8.725 10.325L12.275 13.875ZM17.225 8.925L18.275 7.875L14.725 4.325L13.675 5.375L17.225 8.925ZM19.35 6.8L20.4 5.75L16.85 2.2L15.8 3.25L19.35 6.8Z" fill="var(--fill-0, #707070)"/>
</g>
</g>
</svg>
