<svg preserveAspectRatio="none" width="100%" height="100%" overflow="visible" style="display: block;" viewBox="0 0 24 24" fill="none" xmlns="http://www.w3.org/2000/svg">
<g id="Artboard 5 copy 2">
<path id="Union" d="M19.7588 17.2705C19.9288 17.2705 20.0791 17.3801 20.1191 17.54L20.5986 19.2197L22.2783 19.7002C22.4382 19.7502 22.5486 19.8898 22.5488 20.0596C22.5488 20.2296 22.4383 20.3799 22.2783 20.4199L20.5986 20.9004L20.1191 22.5801C20.0691 22.7401 19.9288 22.8496 19.7588 22.8496C19.5888 22.8496 19.4384 22.7401 19.3984 22.5801L18.9189 20.9004L17.2383 20.4199C17.0785 20.3698 16.9688 20.2294 16.9688 20.0596C16.9689 19.8899 17.0787 19.7403 17.2383 19.7002L18.9189 19.2197L19.3984 17.54C19.4484 17.38 19.5888 17.2705 19.7588 17.2705ZM3.69727 9.56055C4.00727 8.95055 4.81762 8.87035 5.30762 9.36035L9.95703 14.0205L11.3477 12.6299L12.5273 13.8105L11.1377 15.1904L15.7871 19.8398C16.2771 20.3298 16.2069 21.1502 15.5869 21.4502C14.407 22.0401 13.0671 22.3701 11.6572 22.3701C6.75732 22.3701 2.77741 18.3901 2.77734 13.4902C2.77734 12.0804 3.10738 10.7505 3.69727 9.56055ZM4.81738 11.2197C4.57739 11.9397 4.44728 12.7 4.44727 13.5C4.44727 17.48 7.67728 20.7099 11.6572 20.71C12.4572 20.71 13.2177 20.5798 13.9277 20.3398L4.81738 11.2197ZM10.8271 7.9502C14.3471 7.9502 17.207 10.8101 17.207 14.3301H15.5469C15.5469 11.7201 13.4271 9.61035 10.8271 9.61035V7.9502ZM10.8271 4.62012C16.1871 4.62012 20.5371 8.9701 20.5371 14.3301H18.8672C18.8672 9.8901 15.2671 6.28027 10.8271 6.28027V4.62012ZM4.92969 1.16016C5.12944 1.16037 5.30914 1.30024 5.36914 1.5L5.96875 3.60059L8.06934 4.2002C8.26927 4.25024 8.40918 4.44066 8.40918 4.64062C8.40896 4.84039 8.26911 5.02009 8.06934 5.08008L5.96875 5.67969L5.36914 7.78027C5.31913 7.98005 5.12947 8.1199 4.92969 8.12012C4.72973 8.12012 4.54929 7.98021 4.48926 7.78027L3.88965 5.67969L1.78906 5.08008C1.58931 5.03005 1.44944 4.8404 1.44922 4.64062C1.44922 4.44068 1.58914 4.26024 1.78906 4.2002L3.88965 3.60059L4.48926 1.5C4.53932 1.30008 4.72974 1.16016 4.92969 1.16016Z" fill="var(--fill-0, #707070)"/>
</g>
</svg>
