<svg preserveAspectRatio="none" width="100%" height="100%" overflow="visible" style="display: block;" viewBox="0 0 24 24" fill="none" xmlns="http://www.w3.org/2000/svg">
<g id="User admin">
<path id="manage_accounts" d="M7.50496 10.3684C6.75296 9.61635 6.37696 8.71235 6.37696 7.65635C6.37696 6.60035 6.75296 5.69635 7.50496 4.94435C8.25696 4.19235 9.16096 3.81635 10.217 3.81635C11.273 3.81635 12.177 4.19235 12.929 4.94435C13.681 5.69635 14.057 6.60035 14.057 7.65635C14.057 8.71235 13.681 9.61635 12.929 10.3684C12.177 11.1204 11.273 11.4963 10.217 11.4963C9.16096 11.4963 8.25696 11.1204 7.50496 10.3684ZM2.53696 19.1763V16.4883C2.53696 15.9603 2.67296 15.4644 2.94496 15.0004C3.21696 14.5364 3.59296 14.1843 4.07296 13.9443C4.88896 13.5283 5.80896 13.1763 6.83296 12.8883C7.85696 12.6003 8.98496 12.4563 10.217 12.4563H10.553C10.649 12.4563 10.745 12.4723 10.841 12.5043C10.713 12.7923 10.605 13.0923 10.517 13.4043C10.429 13.7163 10.361 14.0403 10.313 14.3763H10.217C9.08096 14.3763 8.06096 14.5203 7.15696 14.8083C6.25296 15.0963 5.51296 15.3844 4.93696 15.6724C4.79296 15.7524 4.67696 15.8643 4.58896 16.0083C4.50096 16.1523 4.45696 16.3123 4.45696 16.4883V17.2563H10.505C10.601 17.5923 10.729 17.9244 10.889 18.2524C11.049 18.5804 11.225 18.8883 11.417 19.1763H2.53696ZM15.977 20.1363L15.689 18.6963C15.497 18.6163 15.317 18.5323 15.149 18.4443C14.981 18.3563 14.809 18.2484 14.633 18.1204L13.241 18.5524L12.281 16.9204L13.385 15.9604C13.353 15.7364 13.337 15.5283 13.337 15.3363C13.337 15.1443 13.353 14.9364 13.385 14.7124L12.281 13.7524L13.241 12.1204L14.633 12.5524C14.809 12.4244 14.981 12.3163 15.149 12.2283C15.317 12.1403 15.497 12.0563 15.689 11.9763L15.977 10.5363H17.897L18.185 11.9763C18.377 12.0563 18.557 12.1444 18.725 12.2404C18.893 12.3364 19.065 12.4564 19.241 12.6004L20.633 12.1204L21.593 13.8004L20.489 14.7604C20.521 14.9524 20.537 15.1524 20.537 15.3604C20.537 15.5684 20.521 15.7684 20.489 15.9604L21.593 16.9204L20.633 18.5524L19.241 18.1204C19.065 18.2484 18.893 18.3563 18.725 18.4443C18.557 18.5323 18.377 18.6163 18.185 18.6963L17.897 20.1363H15.977ZM18.293 16.6924C18.669 16.3164 18.857 15.8643 18.857 15.3363C18.857 14.8083 18.669 14.3564 18.293 13.9804C17.917 13.6044 17.465 13.4163 16.937 13.4163C16.409 13.4163 15.957 13.6044 15.581 13.9804C15.205 14.3564 15.017 14.8083 15.017 15.3363C15.017 15.8643 15.205 16.3164 15.581 16.6924C15.957 17.0684 16.409 17.2563 16.937 17.2563C17.465 17.2563 17.917 17.0684 18.293 16.6924ZM11.573 9.01235C11.949 8.63635 12.137 8.18435 12.137 7.65635C12.137 7.12835 11.949 6.67635 11.573 6.30035C11.197 5.92435 10.745 5.73635 10.217 5.73635C9.68896 5.73635 9.23696 5.92435 8.86096 6.30035C8.48496 6.67635 8.29696 7.12835 8.29696 7.65635C8.29696 8.18435 8.48496 8.63635 8.86096 9.01235C9.23696 9.38835 9.68896 9.57635 10.217 9.57635C10.745 9.57635 11.197 9.38835 11.573 9.01235Z" fill="var(--fill-0, #424242)"/>
</g>
</svg>
