<svg preserveAspectRatio="none" width="100%" height="100%" overflow="visible" style="display: block;" viewBox="0 0 22.5 22.5" fill="none" xmlns="http://www.w3.org/2000/svg">
<g id="icon-wrapper">
<path id="Union" d="M11.25 12.6552C18.2812 12.6552 19.6875 16.874 19.6875 18.2802C19.6875 19.6865 18.2812 19.6865 18.2812 19.6865H4.21875C4.21875 19.6865 2.8125 19.6865 2.8125 18.2802C2.8125 16.874 4.21875 12.6552 11.25 12.6552ZM11.25 14.0615C8.02969 14.0615 6.30555 15.0176 5.38867 15.9345C4.43545 16.8877 4.22166 17.9282 4.21875 18.2744H18.2812C18.2797 17.9282 18.0645 16.8877 17.1113 15.9345C16.1945 15.0176 14.4689 14.0615 11.25 14.0615ZM11.25 2.81146C12.3689 2.81146 13.4422 3.25565 14.2334 4.04681C15.0246 4.83798 15.4687 5.91133 15.4687 7.03021C15.4687 8.14909 15.0246 9.22244 14.2334 10.0136C13.4422 10.8048 12.3689 11.249 11.25 11.249C10.1311 11.249 9.05777 10.8048 8.2666 10.0136C7.47543 9.22244 7.03125 8.14909 7.03125 7.03021C7.03125 5.91133 7.47543 4.83798 8.2666 4.04681C9.05777 3.25564 10.1311 2.81146 11.25 2.81146ZM11.25 4.21771C10.5041 4.21771 9.78916 4.51449 9.26172 5.04193C8.73427 5.56938 8.4375 6.28429 8.4375 7.03021C8.4375 7.77613 8.73427 8.49105 9.26172 9.01849C9.78916 9.54594 10.5041 9.84271 11.25 9.84271C11.9959 9.84271 12.7108 9.54594 13.2383 9.01849C13.7657 8.49105 14.0625 7.77613 14.0625 7.03021C14.0625 6.28429 13.7657 5.56938 13.2383 5.04193C12.7108 4.51449 11.9959 4.21771 11.25 4.21771Z" fill="var(--fill-0, #1A7BD9)"/>
</g>
</svg>
