<svg preserveAspectRatio="none" width="100%" height="100%" overflow="visible" style="display: block;" viewBox="0 0 24 24" fill="none" xmlns="http://www.w3.org/2000/svg">
<g id="property">
<path id="Vector" d="M4.3 6.25V10.1875C4.3 11.1191 3.56128 11.875 2.65 11.875C1.73872 11.875 1.00001 11.1191 1.00001 10.1875V9.625C1.00001 9.31562 1.24626 9.0625 1.55 9.0625C1.85388 9.0625 2.1 9.31562 2.1 9.625V10.1875C2.1 10.4969 2.34613 10.75 2.65 10.75C2.95388 10.75 3.2 10.4969 3.2 10.1875V5.125C3.2 4.70875 3.42138 4.34502 3.75 4.1505C3.91191 4.05477 4.09959 4 4.3 4H6.005C6.32125 4 6.62031 4.13743 6.82656 4.37758L14.2 12.8594V9.0625C14.2 8.13086 14.9391 7.375 15.85 7.375H17.7922C18.4728 7.375 19.1122 7.69492 19.5281 8.24336L22.6528 12.3496C22.8763 12.6449 23 13.0105 23 13.3551V16.9375C23 17.8691 22.2609 18.625 21.35 18.625H20.8C20.8 20.4883 19.3219 22 17.5 22C15.6472 22 14.2 20.4883 14.2 18.625H9.8C9.8 20.4883 8.32188 22 6.5 22C4.64719 22 3.2 20.4883 3.2 18.625H2.65C1.73872 18.625 1 17.8691 1 16.9375V14.6875C1 13.7559 1.73872 13 2.65 13H7.6L4.3 6.25ZM9.61094 17.5H14.3891C14.8394 16.1887 16.0631 15.25 17.5 15.25C18.9369 15.25 20.1606 16.1887 20.6109 17.5H21.35C21.6525 17.5 21.9 17.2469 21.9 16.9375V14.125H2.65C2.34613 14.125 2.1 14.3781 2.1 14.6875V16.9375C2.1 17.2469 2.34613 17.5 2.65 17.5H3.38769C3.84075 16.1887 5.06313 15.25 6.5 15.25C7.93688 15.25 9.16063 16.1887 9.61094 17.5ZM15.3 18.625C15.3 19.866 16.2866 20.875 17.5 20.875C18.7134 20.875 19.7 19.866 19.7 18.625C19.7 17.384 18.7134 16.375 17.5 16.375C16.2866 16.375 15.3 17.384 15.3 18.625ZM17.7922 8.5H15.85C15.5475 8.5 15.3 8.75312 15.3 9.0625V13H21.7522L18.6619 8.93594C18.4522 8.66172 18.1325 8.5 17.7922 8.5ZM4.98063 5.125L8.83063 13H12.8491L6.005 5.125H4.98063ZM6.5 16.375C5.28656 16.375 4.3 17.384 4.3 18.625C4.3 19.866 5.28656 20.875 6.5 20.875C7.71344 20.875 8.7 19.866 8.7 18.625C8.7 17.384 7.71344 16.375 6.5 16.375Z" fill="var(--fill-0, #434F59)"/>
</g>
</svg>
