<svg preserveAspectRatio="none" width="100%" height="100%" overflow="visible" style="display: block;" viewBox="0 0 24 24" fill="none" xmlns="http://www.w3.org/2000/svg">
<g id="property">
<path id="Vector" d="M18.6667 20.25V9.25H14C12.8958 9.25 12 8.32617 12 7.1875V2.375H6.66667C5.92917 2.375 5.33333 2.98945 5.33333 3.75V20.25C5.33333 21.0105 5.92917 21.625 6.66667 21.625H17.3333C18.0708 21.625 18.6667 21.0105 18.6667 20.25ZM18.6458 7.875C18.6167 7.75469 18.5583 7.64297 18.4708 7.55703L13.6417 2.57695C13.5542 2.48672 13.45 2.42656 13.3333 2.39648V7.1875C13.3333 7.56563 13.6333 7.875 14 7.875H18.6458ZM4 3.75C4 2.2332 5.19583 1 6.66667 1H13.1708C13.7 1 14.2083 1.21914 14.5833 1.60586L19.4125 6.58164C19.7875 6.96836 20 7.49258 20 8.03828V20.25C20 21.7668 18.8042 23 17.3333 23H6.66667C5.19583 23 4 21.7668 4 20.25V3.75ZM6.66667 4.4375C6.66667 4.05938 6.96667 3.75 7.33333 3.75H10C10.3667 3.75 10.6667 4.05938 10.6667 4.4375C10.6667 4.81563 10.3667 5.125 10 5.125H7.33333C6.96667 5.125 6.66667 4.81563 6.66667 4.4375ZM6.66667 7.1875C6.66667 6.80938 6.96667 6.5 7.33333 6.5H10C10.3667 6.5 10.6667 6.80938 10.6667 7.1875C10.6667 7.56563 10.3667 7.875 10 7.875H7.33333C6.96667 7.875 6.66667 7.56563 6.66667 7.1875ZM12.6667 11.4672V12.0516C13.0125 12.0988 13.3458 12.1676 13.6542 12.2449C14.0125 12.3309 14.2333 12.7047 14.15 13.0742C14.0667 13.4438 13.7042 13.6715 13.3458 13.5855C12.8792 13.4738 12.4208 13.3879 11.9917 13.3793C11.6292 13.375 11.2458 13.4523 10.9792 13.5984C10.725 13.7359 10.6708 13.8691 10.6708 14.0023C10.6708 14.0668 10.6792 14.157 10.9458 14.3031C11.2375 14.4621 11.6458 14.5781 12.1708 14.7242L12.1917 14.7285C12.6625 14.8574 13.2417 15.0207 13.6958 15.2828C14.1875 15.5664 14.6583 16.0434 14.6708 16.8254C14.6833 17.6375 14.2292 18.1875 13.6875 18.4969C13.375 18.673 13.025 18.7805 12.6708 18.8363V19.4164C12.6708 19.7945 12.3708 20.1039 12.0042 20.1039C11.6375 20.1039 11.3375 19.7945 11.3375 19.4164V18.8105C10.8833 18.7289 10.4542 18.5957 10.075 18.4754C9.9875 18.4453 9.9 18.4195 9.81667 18.3938C9.4625 18.2863 9.2625 17.9039 9.36667 17.5387C9.47083 17.1734 9.84167 16.9672 10.1958 17.0746C10.2958 17.1047 10.3958 17.1348 10.4917 17.1648C11.0583 17.341 11.525 17.4871 12.025 17.5043C12.4167 17.5172 12.7958 17.4355 13.0417 17.2938C13.2667 17.1648 13.3417 17.0273 13.3375 16.8469C13.3375 16.7438 13.3042 16.6363 13.0458 16.4859C12.7583 16.3184 12.3458 16.198 11.8292 16.0563L11.7625 16.0391C11.3042 15.9102 10.7542 15.7598 10.3208 15.5191C9.84167 15.2527 9.35 14.793 9.34583 14.0109C9.34167 13.1945 9.84167 12.666 10.3667 12.3824C10.6708 12.2191 11.0083 12.116 11.3417 12.0602V11.4715C11.3417 11.0934 11.6417 10.784 12.0083 10.784C12.375 10.784 12.675 11.0934 12.675 11.4715L12.6667 11.4672Z" fill="var(--fill-0, #434F59)"/>
</g>
</svg>
