<svg preserveAspectRatio="none" width="100%" height="100%" overflow="visible" style="display: block;" viewBox="0 0 16 16" fill="none" xmlns="http://www.w3.org/2000/svg">
<g id="gear-solid 1" clip-path="url(#clip0_0_458)">
<path id="Vector" d="M15.4975 5.20566C15.5975 5.47754 15.5131 5.78066 15.2975 5.97441L13.9444 7.20566C13.9787 7.46504 13.9975 7.73066 13.9975 7.99941C13.9975 8.26816 13.9787 8.53379 13.9444 8.79316L15.2975 10.0244C15.5131 10.2182 15.5975 10.5213 15.4975 10.7932C15.36 11.165 15.1944 11.5213 15.0037 11.865L14.8569 12.1182C14.6506 12.4619 14.4194 12.7869 14.1662 13.0932C13.9819 13.3182 13.6756 13.3932 13.4006 13.3057L11.66 12.7525C11.2412 13.0744 10.7787 13.3432 10.285 13.5463L9.89436 15.3307C9.83186 15.615 9.61311 15.84 9.32561 15.8869C8.89436 15.9588 8.45061 15.9963 7.99749 15.9963C7.54436 15.9963 7.10061 15.9588 6.66936 15.8869C6.38186 15.84 6.16311 15.615 6.10061 15.3307L5.70999 13.5463C5.21624 13.3432 4.75374 13.0744 4.33499 12.7525L2.59749 13.3088C2.32249 13.3963 2.01624 13.3182 1.83186 13.0963C1.57874 12.79 1.34749 12.465 1.14124 12.1213L0.994362 11.8682C0.803737 11.5244 0.638112 11.1682 0.500612 10.7963C0.400612 10.5244 0.484987 10.2213 0.700612 10.0275L2.05374 8.79629C2.01936 8.53379 2.00061 8.26816 2.00061 7.99941C2.00061 7.73066 2.01936 7.46504 2.05374 7.20566L0.700612 5.97441C0.484987 5.78066 0.400612 5.47754 0.500612 5.20566C0.638112 4.83379 0.803737 4.47754 0.994362 4.13379L1.14124 3.88066C1.34749 3.53691 1.57874 3.21191 1.83186 2.90566C2.01624 2.68066 2.32249 2.60566 2.59749 2.69316L4.33811 3.24629C4.75686 2.92441 5.21936 2.65566 5.71311 2.45254L6.10374 0.668165C6.16624 0.38379 6.38499 0.15879 6.67249 0.111915C7.10374 0.0369146 7.54749 -0.000585368 8.00061 -0.000585368C8.45374 -0.000585368 8.89749 0.0369146 9.32874 0.10879C9.61624 0.155665 9.83499 0.380665 9.89749 0.66504L10.2881 2.44941C10.7819 2.65254 11.2444 2.92129 11.6631 3.24316L13.4037 2.69004C13.6787 2.60254 13.985 2.68066 14.1694 2.90254C14.4225 3.20879 14.6537 3.53379 14.86 3.87754L15.0069 4.13066C15.1975 4.47441 15.3631 4.83066 15.5006 5.20254L15.4975 5.20566ZM8.00061 10.4994C8.66365 10.4994 9.29954 10.236 9.76838 9.76718C10.2372 9.29834 10.5006 8.66246 10.5006 7.99941C10.5006 7.33637 10.2372 6.70049 9.76838 6.23165C9.29954 5.76281 8.66365 5.49941 8.00061 5.49941C7.33757 5.49941 6.70169 5.76281 6.23284 6.23165C5.764 6.70049 5.50061 7.33637 5.50061 7.99941C5.50061 8.66246 5.764 9.29834 6.23284 9.76718C6.70169 10.236 7.33757 10.4994 8.00061 10.4994Z" fill="var(--fill-0, #1A7BD9)"/>
</g>
<defs>
<clipPath id="clip0_0_458">
<rect width="16" height="16" fill="white"/>
</clipPath>
</defs>
</svg>
