<svg preserveAspectRatio="none" width="100%" height="100%" overflow="visible" style="display: block;" viewBox="0 0 24 24" fill="none" xmlns="http://www.w3.org/2000/svg">
<g id="property">
<path id="Vector" d="M3.9 3.6C3.82044 3.6 3.74413 3.63161 3.68787 3.68787C3.63161 3.74413 3.6 3.82044 3.6 3.9V16.5C3.6 16.6656 3.7344 16.8 3.9 16.8H9V18H3.9C3.072 18 2.4 17.328 2.4 16.5V3.9C2.4 3.072 3.072 2.4 3.9 2.4H10.5C11.328 2.4 12 3.072 12 3.9V6.9C12 7.0656 12.1344 7.2 12.3 7.2H14.1C14.928 7.2 15.6 7.872 15.6 8.7V9.6C15.1788 9.648 14.766 9.7932 14.4 10.038V8.7C14.4 8.62043 14.3684 8.54413 14.3121 8.48787C14.2559 8.43161 14.1796 8.4 14.1 8.4H12.3C11.472 8.4 10.8 7.728 10.8 6.9V3.9C10.8 3.82044 10.7684 3.74413 10.7121 3.68787C10.6559 3.63161 10.5796 3.6 10.5 3.6H3.9ZM16.8732 11.1408C16.6018 10.9094 16.2567 10.7822 15.9 10.7822C15.5433 10.7822 15.1982 10.9094 14.9268 11.1408L10.7628 14.6928C10.5865 14.8428 10.4449 15.0293 10.3478 15.2394C10.2506 15.4495 10.2002 15.6781 10.2 15.9096V21.4488C10.2 22.1952 10.8048 22.7988 11.55 22.7988H13.65C14.3952 22.7988 15 22.1952 15 21.4488V19.35C15 19.2672 15.0672 19.2 15.15 19.2H16.65C16.7328 19.2 16.8 19.2672 16.8 19.35V21.45C16.8 22.194 17.4048 22.7988 18.15 22.7988H20.25C20.9952 22.7988 21.6 22.1952 21.6 21.4488V15.9096C21.6 15.4416 21.3948 14.9964 21.0384 14.6928L16.8732 11.1408ZM15.7056 12.054C15.7599 12.0078 15.8288 11.9825 15.9 11.9825C15.9712 11.9825 16.0401 12.0078 16.0944 12.054L20.2584 15.606C20.3025 15.6434 20.338 15.6899 20.3624 15.7423C20.3869 15.7947 20.3997 15.8518 20.4 15.9096V21.4488C20.4 21.5328 20.3328 21.5988 20.25 21.5988H18.15C18.1102 21.5988 18.0721 21.583 18.0439 21.5549C18.0158 21.5267 18 21.4886 18 21.4488V19.35C18 18.6048 17.3952 18 16.65 18H15.15C14.4048 18 13.8 18.6048 13.8 19.35V21.45C13.7997 21.4896 13.7837 21.5274 13.7556 21.5553C13.7275 21.5832 13.6896 21.5988 13.65 21.5988H11.55C11.5102 21.5988 11.4721 21.583 11.4439 21.5549C11.4158 21.5267 11.4 21.4886 11.4 21.4488V15.9096C11.4 15.7932 11.4516 15.6816 11.5404 15.606L15.7044 12.054H15.7056ZM6.6 5.7C6.6 5.93869 6.50518 6.16761 6.3364 6.3364C6.16761 6.50518 5.9387 6.6 5.7 6.6C5.46131 6.6 5.23239 6.50518 5.0636 6.3364C4.89482 6.16761 4.8 5.93869 4.8 5.7C4.8 5.4613 4.89482 5.23239 5.0636 5.0636C5.23239 4.89482 5.46131 4.8 5.7 4.8C5.9387 4.8 6.16761 4.89482 6.3364 5.0636C6.50518 5.23239 6.6 5.4613 6.6 5.7ZM5.7 9.3C5.9387 9.3 6.16761 9.20518 6.3364 9.0364C6.50518 8.86761 6.6 8.63869 6.6 8.4C6.6 8.1613 6.50518 7.93239 6.3364 7.7636C6.16761 7.59482 5.9387 7.5 5.7 7.5C5.46131 7.5 5.23239 7.59482 5.0636 7.7636C4.89482 7.93239 4.8 8.1613 4.8 8.4C4.8 8.63869 4.89482 8.86761 5.0636 9.0364C5.23239 9.20518 5.46131 9.3 5.7 9.3ZM6.6 11.1C6.6 11.3387 6.50518 11.5676 6.3364 11.7364C6.16761 11.9052 5.9387 12 5.7 12C5.46131 12 5.23239 11.9052 5.0636 11.7364C4.89482 11.5676 4.8 11.3387 4.8 11.1C4.8 10.8613 4.89482 10.6324 5.0636 10.4636C5.23239 10.2948 5.46131 10.2 5.7 10.2C5.9387 10.2 6.16761 10.2948 6.3364 10.4636C6.50518 10.6324 6.6 10.8613 6.6 11.1ZM8.7 6.6C8.9387 6.6 9.16761 6.50518 9.3364 6.3364C9.50518 6.16761 9.6 5.93869 9.6 5.7C9.6 5.4613 9.50518 5.23239 9.3364 5.0636C9.16761 4.89482 8.9387 4.8 8.7 4.8C8.46131 4.8 8.23239 4.89482 8.0636 5.0636C7.89482 5.23239 7.8 5.4613 7.8 5.7C7.8 5.93869 7.89482 6.16761 8.0636 6.3364C8.23239 6.50518 8.46131 6.6 8.7 6.6ZM9.6 8.4C9.6 8.63869 9.50518 8.86761 9.3364 9.0364C9.16761 9.20518 8.9387 9.3 8.7 9.3C8.46131 9.3 8.23239 9.20518 8.0636 9.0364C7.89482 8.86761 7.8 8.63869 7.8 8.4C7.8 8.1613 7.89482 7.93239 8.0636 7.7636C8.23239 7.59482 8.46131 7.5 8.7 7.5C8.9387 7.5 9.16761 7.59482 9.3364 7.7636C9.50518 7.93239 9.6 8.1613 9.6 8.4ZM8.7 12C8.9387 12 9.16761 11.9052 9.3364 11.7364C9.50518 11.5676 9.6 11.3387 9.6 11.1C9.6 10.8613 9.50518 10.6324 9.3364 10.4636C9.16761 10.2948 8.9387 10.2 8.7 10.2C8.46131 10.2 8.23239 10.2948 8.0636 10.4636C7.89482 10.6324 7.8 10.8613 7.8 11.1C7.8 11.3387 7.89482 11.5676 8.0636 11.7364C8.23239 11.9052 8.46131 12 8.7 12Z" fill="var(--fill-0, #434F59)"/>
</g>
</svg>
