<svg preserveAspectRatio="none" width="100%" height="100%" overflow="visible" style="display: block;" viewBox="0 0 19.0476 25" fill="none" xmlns="http://www.w3.org/2000/svg">
<path id="Vector" d="M13.4921 9.39932C13.4921 11.5631 11.7163 13.3157 9.52381 13.3157C7.33135 13.3157 5.55556 11.5631 5.55556 9.39932C5.55556 7.23552 7.33135 5.48294 9.52381 5.48294C11.7163 5.48294 13.4921 7.23552 13.4921 9.39932ZM9.52381 11.7492C10.8383 11.7492 11.9048 10.6966 11.9048 9.39932C11.9048 8.10202 10.8383 7.04949 9.52381 7.04949C8.20933 7.04949 7.14286 8.10202 7.14286 9.39932C7.14286 10.6966 8.20933 11.7492 9.52381 11.7492ZM19.0476 9.39932C19.0476 13.678 13.244 21.2953 10.6994 24.4382C10.0893 25.1873 8.95833 25.1873 8.34822 24.4382C5.75893 21.2953 0 13.678 0 9.39932C0 4.20816 4.26389 0 9.52381 0C14.7817 0 19.0476 4.20816 19.0476 9.39932ZM9.52381 1.56655C5.13889 1.56655 1.5873 5.07172 1.5873 9.39932C1.5873 10.163 1.85665 11.2107 2.40873 12.5031C2.9499 13.771 3.71032 15.1466 4.57044 16.5222C6.25992 19.2294 8.26389 21.8192 9.52381 23.3808C10.7837 21.8192 12.7877 19.2294 14.4792 16.5222C15.3373 15.1466 16.0962 13.771 16.6369 12.5031C17.1925 11.2107 17.4603 10.163 17.4603 9.39932C17.4603 5.07172 13.9087 1.56655 9.52381 1.56655Z" fill="var(--fill-0, #5D6A71)"/>
</svg>
