<svg preserveAspectRatio="none" width="100%" height="100%" overflow="visible" style="display: block;" viewBox="0 0 10 10" fill="none" xmlns="http://www.w3.org/2000/svg">
<g id="icon-wrapper" clip-path="url(#clip0_0_5231)">
<path id="Union" d="M9.03613 2.49951C9.08023 2.49956 9.12429 2.50802 9.16503 2.5249C9.20578 2.54182 9.24321 2.56694 9.27441 2.59814C9.30554 2.62936 9.3298 2.66678 9.34667 2.70751C9.36357 2.74836 9.37304 2.79222 9.37304 2.83642C9.37301 2.88059 9.36358 2.92452 9.34667 2.96533C9.32976 3.00605 9.30558 3.04351 9.27441 3.0747L5.23632 7.11279C5.20508 7.14411 5.1678 7.16907 5.12695 7.18603C5.08617 7.20295 5.04219 7.21138 4.99804 7.21142C4.95396 7.21142 4.90987 7.20286 4.86913 7.18603C4.8284 7.16912 4.79095 7.14397 4.75976 7.11279L0.721673 3.0747C0.690383 3.04349 0.665393 3.00613 0.648431 2.96533C0.631497 2.92452 0.623071 2.8806 0.62304 2.83642C0.62304 2.79223 0.631524 2.74833 0.648431 2.70751C0.665395 2.66663 0.690336 2.6294 0.721673 2.59814C0.752931 2.5668 0.790167 2.54186 0.831048 2.5249C0.871869 2.50799 0.915769 2.49951 0.959954 2.49951C1.00414 2.49954 1.04805 2.50796 1.08886 2.5249C1.12967 2.54186 1.16702 2.56685 1.19824 2.59814L4.99804 6.39794L8.79784 2.59814C8.82911 2.5669 8.86639 2.54181 8.90722 2.5249C8.94798 2.50807 8.99202 2.49951 9.03613 2.49951Z" fill="var(--fill-0, white)"/>
</g>
<defs>
<clipPath id="clip0_0_5231">
<rect width="10" height="10" fill="white"/>
</clipPath>
</defs>
</svg>
