<svg preserveAspectRatio="none" width="100%" height="100%" overflow="visible" style="display: block;" viewBox="0 0 16 16" fill="none" xmlns="http://www.w3.org/2000/svg">
<g id="magnifying-glass-chart-duotone 1" clip-path="url(#clip0_0_2310)">
<path id="Vector" opacity="0.4" d="M6.5 13C8.22391 13 9.87721 12.3152 11.0962 11.0962C12.3152 9.87721 13 8.22391 13 6.5C13 4.77609 12.3152 3.12279 11.0962 1.90381C9.87721 0.684819 8.22391 0 6.5 0C4.77609 0 3.12279 0.684819 1.90381 1.90381C0.684819 3.12279 0 4.77609 0 6.5C0 8.22391 0.684819 9.87721 1.90381 11.0962C3.12279 12.3152 4.77609 13 6.5 13ZM3.25 6.75C3.25 6.33437 3.58437 6 4 6C4.41563 6 4.75 6.33437 4.75 6.75V8.75C4.75 9.16563 4.41563 9.5 4 9.5C3.58437 9.5 3.25 9.16563 3.25 8.75V6.75ZM5.75 3.75C5.75 3.33437 6.08437 3 6.5 3C6.91563 3 7.25 3.33437 7.25 3.75V8.75C7.25 9.16563 6.91563 9.5 6.5 9.5C6.08437 9.5 5.75 9.16563 5.75 8.75V3.75ZM8.25 5.75C8.25 5.33437 8.58437 5 9 5C9.41563 5 9.75 5.33437 9.75 5.75V8.75C9.75 9.16563 9.41563 9.5 9 9.5C8.58437 9.5 8.25 9.16563 8.25 8.75V5.75Z" fill="var(--fill-0, #3878BC)"/>
<path id="Vector_2" d="M3.25 6.75C3.25 6.33437 3.58437 6 4 6C4.41563 6 4.75 6.33437 4.75 6.75V8.75C4.75 9.16563 4.41563 9.5 4 9.5C3.58437 9.5 3.25 9.16563 3.25 8.75V6.75ZM5.75 3.75C5.75 3.33437 6.08437 3 6.5 3C6.91563 3 7.25 3.33437 7.25 3.75V8.75C7.25 9.16563 6.91563 9.5 6.5 9.5C6.08437 9.5 5.75 9.16563 5.75 8.75V3.75ZM8.25 5.75C8.25 5.33437 8.58437 5 9 5C9.41563 5 9.75 5.33437 9.75 5.75V8.75C9.75 9.16563 9.41563 9.5 9 9.5C8.58437 9.5 8.25 9.16563 8.25 8.75V5.75ZM14.2937 15.7063L10.3344 11.75C10.875 11.3531 11.3531 10.875 11.75 10.3344L15.7063 14.2937C16.0969 14.6844 16.0969 15.3188 15.7063 15.7094C15.3156 16.1 14.6812 16.1 14.2906 15.7094L14.2937 15.7063Z" fill="var(--fill-0, #3878BC)"/>
</g>
<defs>
<clipPath id="clip0_0_2310">
<rect width="16" height="16" fill="white"/>
</clipPath>
</defs>
</svg>
