<svg preserveAspectRatio="none" width="100%" height="100%" overflow="visible" style="display: block;" viewBox="0 0 14 14" fill="none" xmlns="http://www.w3.org/2000/svg">
<g id="icon-wrapper" clip-path="url(#clip0_0_2298)">
<path id="Union" d="M5.37597 8.00243C5.54549 7.83291 5.8246 7.83292 5.99413 8.00243C6.16366 8.17197 6.16366 8.45107 5.99413 8.6206L1.49023 13.1245H4.37304C4.61345 13.1248 4.81054 13.3215 4.81054 13.562C4.81028 13.8023 4.6133 13.9992 4.37304 13.9995H0.435539C0.195071 13.9995 -0.00170484 13.8024 -0.00196068 13.562V9.6245C-0.00196068 9.38388 0.194914 9.187 0.435539 9.187C0.675951 9.18726 0.873039 9.38404 0.873039 9.6245V12.5063L5.37597 8.00243ZM13.5605 -0.000495839C13.801 -0.000239992 13.998 0.196536 13.998 0.437004V4.3745C13.9978 4.61476 13.8008 4.81175 13.5605 4.812C13.3201 4.812 13.1233 4.61492 13.123 4.3745V1.49169L8.61913 5.9956C8.4496 6.16513 8.1705 6.16513 8.00097 5.9956C7.83146 5.82606 7.83144 5.54696 8.00097 5.37743L12.5049 0.874504H9.62304C9.38257 0.874504 9.1858 0.677416 9.18554 0.437004C9.18554 0.196379 9.38241 -0.000495839 9.62304 -0.000495839H13.5605Z" fill="var(--fill-0, #345D9D)"/>
</g>
<defs>
<clipPath id="clip0_0_2298">
<rect width="14" height="14" fill="white"/>
</clipPath>
</defs>
</svg>
