<svg preserveAspectRatio="none" width="100%" height="100%" overflow="visible" style="display: block;" viewBox="0 0 14 14" fill="none" xmlns="http://www.w3.org/2000/svg">
<g id="icon-wrapper">
<path id="Union" d="M8.31054 11.3745C8.55095 11.3748 8.74804 11.5715 8.74804 11.812C8.74778 12.0523 8.5508 12.2492 8.31054 12.2495H5.68554C5.44507 12.2495 5.2483 12.0524 5.24804 11.812C5.24804 11.5714 5.44491 11.3745 5.68554 11.3745H8.31054ZM10.9355 6.9995C11.176 6.99976 11.373 7.19654 11.373 7.437C11.3728 7.67726 11.1758 7.87425 10.9355 7.8745H3.06054C2.82007 7.8745 2.6233 7.67742 2.62304 7.437C2.62304 7.19638 2.81991 6.9995 3.06054 6.9995H10.9355ZM12.6855 2.6245C12.926 2.62476 13.123 2.82154 13.123 3.062C13.1228 3.30226 12.9258 3.49925 12.6855 3.4995H1.31054C1.07007 3.4995 0.873295 3.30242 0.873039 3.062C0.873039 2.82138 1.06991 2.6245 1.31054 2.6245H12.6855Z" fill="var(--fill-0, #345D9D)"/>
</g>
</svg>
