<svg preserveAspectRatio="none" width="100%" height="100%" overflow="visible" style="display: block;" viewBox="0 0 52.5417 52.5417" fill="none" xmlns="http://www.w3.org/2000/svg">
<g id="Group 1">
<path id="Ellipse 51" d="M52.5417 26.2708C52.5417 19.3034 49.7739 12.6213 44.8471 7.69455C39.9204 2.76781 33.2383 5.26029e-07 26.2708 0C19.3034 -5.26028e-07 12.6213 2.76781 7.69455 7.69455C2.76782 12.6213 3.59527e-06 19.3034 2.54321e-06 26.2708L10.93 26.2708C10.93 22.2022 12.5463 18.3002 15.4232 15.4232C18.3002 12.5463 22.2022 10.93 26.2708 10.93C30.3395 10.93 34.2415 12.5463 37.1184 15.4232C39.9954 18.3002 41.6117 22.2022 41.6117 26.2708H52.5417Z" fill="var(--fill-0, #BDD7EB)"/>
<path id="Ellipse 52" d="M0 26.2708C0 19.9981 2.24444 13.9325 6.32748 9.17057L14.6249 16.2852C12.2406 19.0658 10.93 22.6079 10.93 26.2708L0 26.2708Z" fill="var(--fill-0, #3878BC)"/>
</g>
</svg>
