<svg preserveAspectRatio="none" width="100%" height="100%" overflow="visible" style="display: block;" viewBox="0 0 16.0022 16.0011" fill="none" xmlns="http://www.w3.org/2000/svg">
<g id="wrapper">
<path id="Union" d="M8.0022 0.00110507C10.1239 0.00110678 12.1591 0.843589 13.6594 2.34388C15.1597 3.84417 16.0022 5.87938 16.0022 8.00111C16.0022 10.1228 15.1597 12.158 13.6594 13.6583C12.1591 15.1586 10.1239 16.0011 8.0022 16.0011C5.88047 16.0011 3.84527 15.1586 2.34498 13.6583C0.844688 12.158 0.00220541 10.1228 0.0022037 8.00111C0.0022037 5.87937 0.844686 3.84417 2.34498 2.34388C3.84527 0.843588 5.88047 0.00110507 8.0022 0.00110507ZM7.0022 11.0011C5.42728 11.0011 4.13707 12.2135 4.01197 13.754C5.14319 14.5383 6.51791 15.0011 8.0022 15.0011C9.48652 15.0011 10.8614 14.5385 11.9895 13.7511L11.9924 13.754C11.8642 12.2135 10.5771 11.0011 9.0022 11.0011H7.0022ZM8.0022 1.00111C4.13658 1.00111 1.0022 4.13548 1.0022 8.00111C1.00221 9.96985 1.8149 11.7478 3.12427 13.0197C3.56185 11.2854 5.13041 10.0011 7.0022 10.0011H9.0022C10.874 10.0011 12.4426 11.2854 12.8801 13.0197C14.1895 11.7478 15.0022 9.96985 15.0022 8.00111C15.0022 4.13548 11.8678 1.00111 8.0022 1.00111ZM8.0022 4.00111C8.66524 4.00111 9.30094 4.26469 9.76978 4.73353C10.2386 5.20237 10.5022 5.83807 10.5022 6.50111C10.5022 7.16414 10.2386 7.79984 9.76978 8.26868C9.30094 8.73752 8.66524 9.0011 8.0022 9.00111C7.33917 9.00111 6.70347 8.73752 6.23463 8.26868C5.76579 7.79984 5.50221 7.16414 5.5022 6.50111C5.5022 5.83806 5.76578 5.20237 6.23463 4.73353C6.70347 4.26469 7.33916 4.00111 8.0022 4.00111ZM8.0022 5.00111C7.60438 5.00111 7.22296 5.15925 6.94166 5.44056C6.66035 5.72186 6.5022 6.10328 6.5022 6.50111C6.50221 6.89893 6.66035 7.28035 6.94166 7.56165C7.22296 7.84295 7.60438 8.00111 8.0022 8.00111C8.40003 8.0011 8.78145 7.84295 9.06275 7.56165C9.34405 7.28035 9.5022 6.89893 9.5022 6.50111C9.5022 6.10328 9.34405 5.72186 9.06275 5.44056C8.78145 5.15926 8.40003 5.00111 8.0022 5.00111Z" fill="var(--fill-0, white)"/>
</g>
</svg>
