<svg preserveAspectRatio="none" width="100%" height="100%" overflow="visible" style="display: block;" viewBox="0 0 16.002 16.0001" fill="none" xmlns="http://www.w3.org/2000/svg">
<g id="wrapper">
<path id="Union" d="M8.00195 1.00012C9.85847 1.00012 11.6389 1.73762 12.9517 3.05037C14.2645 4.36313 15.002 6.14361 15.002 8.00012C15.002 9.85664 14.2645 11.6371 12.9517 12.9499C11.6389 14.2626 9.85847 15.0001 8.00195 15.0001C6.14544 15.0001 4.36496 14.2626 3.05221 12.9499C1.73945 11.6371 1.00195 9.85664 1.00195 8.00012C1.00195 6.14361 1.73945 4.36313 3.05221 3.05037C4.36496 1.73762 6.14544 1.00012 8.00195 1.00012ZM8.00195 16.0001C10.1237 16.0001 12.1585 15.1573 13.6588 13.657C15.1591 12.1567 16.002 10.1219 16.002 8.00012C16.002 5.87839 15.1591 3.84356 13.6588 2.34327C12.1585 0.842977 10.1237 0.00012207 8.00195 0.00012207C5.88022 0.00012207 3.84539 0.842977 2.3451 2.34327C0.844808 3.84356 0.00195313 5.87839 0.00195312 8.00012C0.00195313 10.1219 0.844808 12.1567 2.3451 13.657C3.84539 15.1573 5.88022 16.0001 8.00195 16.0001ZM6.50195 11.0001C6.22695 11.0001 6.00195 11.2251 6.00195 11.5001C6.00195 11.7751 6.22695 12.0001 6.50195 12.0001H9.50195C9.77695 12.0001 10.002 11.7751 10.002 11.5001C10.002 11.2251 9.77695 11.0001 9.50195 11.0001H8.50195V7.50012C8.50195 7.22512 8.27695 7.00012 8.00195 7.00012H6.75195C6.47695 7.00012 6.25195 7.22512 6.25195 7.50012C6.25195 7.77512 6.47695 8.00012 6.75195 8.00012H7.50195V11.0001H6.50195ZM8.00195 5.75012C8.20087 5.75012 8.39163 5.6711 8.53228 5.53045C8.67294 5.3898 8.75195 5.19903 8.75195 5.00012C8.75195 4.80121 8.67294 4.61044 8.53228 4.46979C8.39163 4.32914 8.20087 4.25012 8.00195 4.25012C7.80304 4.25012 7.61228 4.32914 7.47162 4.46979C7.33097 4.61044 7.25195 4.80121 7.25195 5.00012C7.25195 5.19903 7.33097 5.3898 7.47162 5.53045C7.61228 5.6711 7.80304 5.75012 8.00195 5.75012Z" fill="var(--fill-0, #3878BC)"/>
</g>
</svg>
