<svg preserveAspectRatio="none" width="100%" height="100%" overflow="visible" style="display: block;" viewBox="0 0 16 12.8" fill="none" xmlns="http://www.w3.org/2000/svg">
<g id="arrows-to-circle-duotone 1" clip-path="url(#clip0_0_2253)">
<path id="Vector" opacity="0.4" d="M6.40039 6.40005C6.40039 5.9757 6.56896 5.56874 6.86902 5.26868C7.16908 4.96862 7.57604 4.80005 8.00039 4.80005C8.42474 4.80005 8.8317 4.96862 9.13176 5.26868C9.43182 5.56874 9.60039 5.9757 9.60039 6.40005C9.60039 6.8244 9.43182 7.23136 9.13176 7.53142C8.8317 7.83148 8.42474 8.00005 8.00039 8.00005C7.57604 8.00005 7.16908 7.83148 6.86902 7.53142C6.56896 7.23136 6.40039 6.8244 6.40039 6.40005Z" fill="var(--fill-0, #3878BC)"/>
<path id="Vector_2" d="M0.235 0.235C0.5475 -0.0775 1.0525 -0.0775 1.365 0.235L4 2.8675V2.4C4 1.9575 4.3575 1.6 4.8 1.6C5.2425 1.6 5.6 1.9575 5.6 2.4V4.8C5.6 4.9075 5.5775 5.0125 5.54 5.105C5.5 5.1975 5.445 5.2875 5.3675 5.3625L5.365 5.365C5.2875 5.44 5.2 5.4975 5.1075 5.5375C5.0125 5.5775 4.91 5.5975 4.8025 5.5975H2.4C1.9575 5.5975 1.6 5.24 1.6 4.7975C1.6 4.355 1.9575 3.9975 2.4 3.9975H2.8675L0.235 1.365C-0.0775 1.0525 -0.0775 0.5475 0.235 0.235ZM2.8675 8.8H2.4C1.9575 8.8 1.6 8.4425 1.6 8C1.6 7.5575 1.9575 7.2 2.4 7.2H4.8H4.8025C5.0225 7.2 5.22 7.29 5.365 7.4325L5.3675 7.435C5.4425 7.5125 5.5 7.6 5.54 7.6925C5.58 7.7875 5.6 7.89 5.6 7.9975V10.3975C5.6 10.84 5.2425 11.1975 4.8 11.1975C4.3575 11.1975 4 10.84 4 10.3975V9.9325L1.365 12.565C1.0525 12.8775 0.545 12.8775 0.2325 12.565C-0.08 12.2525 -0.08 11.745 0.2325 11.4325L2.8675 8.8ZM10.4 2.4C10.4 1.9575 10.7575 1.6 11.2 1.6C11.6425 1.6 12 1.9575 12 2.4V2.8675L14.635 0.235C14.9475 -0.0775 15.455 -0.0775 15.7675 0.235C16.08 0.5475 16.08 1.055 15.7675 1.3675L13.1325 4H13.6C14.0425 4 14.4 4.3575 14.4 4.8C14.4 5.2425 14.0425 5.6 13.6 5.6H11.2C10.98 5.6 10.78 5.51 10.635 5.3675L10.6325 5.365C10.5575 5.2875 10.5 5.2 10.46 5.1075C10.42 5.015 10.4 4.9125 10.4 4.8025V4.8V2.4ZM13.1325 8.8L15.765 11.435C16.0775 11.7475 16.0775 12.255 15.765 12.5675C15.4525 12.88 14.945 12.88 14.6325 12.5675L12 9.9325V10.4C12 10.8425 11.6425 11.2 11.2 11.2C10.7575 11.2 10.4 10.8425 10.4 10.4V8V7.9975C10.4 7.89 10.4225 7.7875 10.46 7.6925C10.5 7.5975 10.5575 7.51 10.6325 7.4325C10.7775 7.2875 10.975 7.2 11.195 7.1975H11.1975H13.5975C14.04 7.1975 14.3975 7.555 14.3975 7.9975C14.3975 8.44 14.04 8.7975 13.5975 8.7975H13.1325V8.8Z" fill="var(--fill-0, #3878BC)"/>
</g>
<defs>
<clipPath id="clip0_0_2253">
<rect width="16" height="12.8" fill="white"/>
</clipPath>
</defs>
</svg>
