<svg preserveAspectRatio="none" width="100%" height="100%" overflow="visible" style="display: block;" viewBox="0 0 14 14" fill="none" xmlns="http://www.w3.org/2000/svg">
<g id="chevron-down">
<path id="Vector" fill-rule="evenodd" clip-rule="evenodd" d="M1.01348 3.63848C1.05724 3.5946 1.10922 3.5598 1.16646 3.53605C1.22369 3.5123 1.28505 3.50007 1.34701 3.50007C1.40898 3.50007 1.47034 3.5123 1.52757 3.53605C1.5848 3.5598 1.63679 3.5946 1.68055 3.63848L7.0002 8.95906L12.3198 3.63848C12.3636 3.59467 12.4156 3.55993 12.4729 3.53622C12.5301 3.51252 12.5914 3.50032 12.6534 3.50032C12.7153 3.50032 12.7767 3.51252 12.8339 3.53622C12.8911 3.55993 12.9431 3.59467 12.9869 3.63848C13.0307 3.68228 13.0655 3.73427 13.0892 3.7915C13.1129 3.84873 13.1251 3.91007 13.1251 3.97201C13.1251 4.03396 13.1129 4.09529 13.0892 4.15252C13.0655 4.20975 13.0307 4.26175 12.9869 4.30555L7.33373 9.95873C7.28997 10.0026 7.23799 10.0374 7.18075 10.0612C7.12352 10.0849 7.06216 10.0971 7.0002 10.0971C6.93823 10.0971 6.87687 10.0849 6.81964 10.0612C6.76241 10.0374 6.71042 10.0026 6.66666 9.95873L1.01348 4.30555C0.969604 4.26179 0.934796 4.2098 0.911047 4.15257C0.887297 4.09534 0.875072 4.03398 0.875072 3.97201C0.875072 3.91005 0.887297 3.84869 0.911047 3.79146C0.934796 3.73422 0.969604 3.68224 1.01348 3.63848V3.63848Z" fill="var(--fill-0, #8E8F92)"/>
</g>
</svg>
