<svg preserveAspectRatio="none" width="100%" height="100%" overflow="visible" style="display: block;" viewBox="0 0 16 16" fill="none" xmlns="http://www.w3.org/2000/svg">
<g id="circle-exclamation" clip-path="url(#clip0_0_2238)">
<path id="Secondary" opacity="0.4" d="M0 8C0 10.1217 0.842855 12.1566 2.34315 13.6569C3.84344 15.1571 5.87827 16 8 16C10.1217 16 12.1566 15.1571 13.6569 13.6569C15.1571 12.1566 16 10.1217 16 8C16 5.87827 15.1571 3.84344 13.6569 2.34315C12.1566 0.842855 10.1217 0 8 0C5.87827 0 3.84344 0.842855 2.34315 2.34315C0.842855 3.84344 0 5.87827 0 8ZM9 11C9 11.2652 8.89464 11.5196 8.70711 11.7071C8.51957 11.8946 8.26522 12 8 12C7.73478 12 7.48043 11.8946 7.29289 11.7071C7.10536 11.5196 7 11.2652 7 11C7 10.7348 7.10536 10.4804 7.29289 10.2929C7.48043 10.1054 7.73478 10 8 10C8.26522 10 8.51957 10.1054 8.70711 10.2929C8.89464 10.4804 9 10.7348 9 11ZM7.25 4.75C7.25 4.33437 7.58437 4 8 4C8.41563 4 8.75 4.33437 8.75 4.75V8.25C8.75 8.66563 8.41563 9 8 9C7.58437 9 7.25 8.66563 7.25 8.25V4.75Z" fill="var(--fill-0, #3878BC)"/>
<path id="Primary" d="M8.75 4.75C8.75 4.33437 8.41563 4 8 4C7.58437 4 7.25 4.33437 7.25 4.75V8.25C7.25 8.66563 7.58437 9 8 9C8.41563 9 8.75 8.66563 8.75 8.25V4.75ZM8 12C8.26522 12 8.51957 11.8946 8.70711 11.7071C8.89464 11.5196 9 11.2652 9 11C9 10.7348 8.89464 10.4804 8.70711 10.2929C8.51957 10.1054 8.26522 10 8 10C7.73478 10 7.48043 10.1054 7.29289 10.2929C7.10536 10.4804 7 10.7348 7 11C7 11.2652 7.10536 11.5196 7.29289 11.7071C7.48043 11.8946 7.73478 12 8 12Z" fill="var(--fill-0, #3878BC)"/>
</g>
<defs>
<clipPath id="clip0_0_2238">
<rect width="16" height="16" fill="white"/>
</clipPath>
</defs>
</svg>
