<svg preserveAspectRatio="none" width="100%" height="100%" overflow="visible" style="display: block;" viewBox="0 0 14 14" fill="none" xmlns="http://www.w3.org/2000/svg">
<g id="icon-wrapper" clip-path="url(#clip0_0_2404)">
<path id="Union" d="M8.24706 8.312C10.9404 8.312 13.123 10.4936 13.123 13.187C13.123 13.6354 12.7589 13.9995 12.3105 13.9995H1.68456C1.23621 13.9994 0.873082 13.6354 0.873039 13.187C0.873039 10.4936 3.05468 8.312 5.74804 8.312H8.24706ZM6.99804 -0.000495839C7.92612 -0.000371663 8.81638 0.367664 9.47265 1.02392C10.129 1.6803 10.498 2.57125 10.498 3.4995C10.4979 4.42759 10.1289 5.31785 9.47265 5.97411C8.81638 6.63038 7.92613 6.99938 6.99804 6.9995C6.06978 6.9995 5.17883 6.63049 4.52245 5.97411C3.8662 5.31785 3.49816 4.42758 3.49804 3.4995C3.49804 2.57125 3.86608 1.6803 4.52245 1.02392C5.17883 0.367541 6.06978 -0.000495839 6.99804 -0.000495839Z" fill="var(--fill-0, #6D6E71)"/>
</g>
<defs>
<clipPath id="clip0_0_2404">
<rect width="14" height="14" fill="white"/>
</clipPath>
</defs>
</svg>
